<?xml  version="1.0" encoding="UTF-8"?>
<!DOCTYPE svg PUBLIC "-//W3C//DTD SVG 1.0//EN" "http://www.w3.org/TR/2001/REC-SVG-20010904/DTD/svg10.dtd" >
<svg xmlns="http://www.w3.org/2000/svg" >
<metadata>
<version>1.0</version>
<id><![CDATA[Cachet W01 Bold]]></id>
<vendor>Monotype Imaging Inc.</vendor>
<credits>
<name>Fonts.com WebFonts</name>
<URL>http://webfonts.fonts.com</URL>
<role>Home of the Web fonts</role>
</credits>
<license>
<URL>http://webfonts.fonts.com/Legal</URL>
</license>
<copyright><![CDATA[Copyright 1997 Monotype Imaging, Inc. All rights reserved.]]></copyright>
<trademark><![CDATA[Cachet is a trademark of Panache Typography and may be registered in certain jurisdictions.]]></trademark>
<licensee>
<name></name>
</licensee>
</metadata>
<defs >
<font horiz-adv-x="551" id="7b9b00a4-5d07-4a16-b0a3-6377d28e859e">
<font-face font-family="" panose-1="2 11 8 6 3 5 4 2 2 3" ascent="984" descent="-239" units-per-em="1000" alphabetic="0">
</font-face>
<missing-glyph horiz-adv-x="0" />

<glyph unicode="&#xA;" />
<glyph unicode="&#xD;" horiz-adv-x="0" />
<glyph unicode=" " horiz-adv-x="245" />
<glyph unicode="!" horiz-adv-x="319" d="M228 289Q227 263 215 249T176 235H143Q127 235 117 237T102 246T94 262T92 289L84 615V618Q84 645 98 656T139 668H184Q207 668 221 653T235 615L228 289ZM259 84Q259 71 249 54T223 20T191 -7T161 -18Q147 -18 130 -8T97 18T71 51T60 81Q60 94 70 111T96 145T129 172T159 183Q172 183 189 173T222 147T248 114T259 84Z"  />
<glyph unicode="&quot;" horiz-adv-x="410" d="M292 571Q269 571 254 580T237 614Q236 625 234 639T231 667T228 696T227 720Q227 745 245 752T283 759H317Q336 759 352 749T369 717Q369 708 368 695T366 667T362 638T359 614Q357 591 344 581T308 571H292ZM107 571Q84 571 69 580T52 614Q51 625 49 639T46 667T43 696T42 720Q42 745 59 752T97 759H132Q151 759 167 749T184 717Q184 708 183 695T181 667T177 638T174 614Q172 591 159 581T122 571H107Z"  />
<glyph unicode="#" horiz-adv-x="643" d="M574 371H507L488 292H553L526 183H461L424 31H297L335 183H237L199 31H70L109 183H41L68 292H136L155 371H88L115 480H182L220 631H346L310 480H409L446 631H572L534 480H601L574 371ZM283 371L264 292H362L381 371H283Z"  />
<glyph unicode="$" horiz-adv-x="633" d="M511 210Q511 195 511 176T508 138T502 101T491 70Q479 47 459 33T416 10T367 -3T317 -8V-70Q317 -84 313 -91T294 -99H279Q262 -99 261 -92T259 -70V-9Q228 -8 198 -7T137 -2Q125 -1 114 1T95 7T81 20T75 43V76Q75 106 83 120T124 134Q158 134 191 131T259 126V278L202 302Q164 318 139 334T99 371T77 421T70 491Q70 527 77 557T100 611T143 650T208 671Q221 673 233 673T259 675V738Q259 760 267 762T294 765Q306 765 311 757T317 738V675Q346 675 376 674T435 670Q447 669 458 668T478 661T492 648T498 625V593Q498 563 489 549T448 535Q415 535 383 537T317 540V402L335 395Q354 387 379 378T428 356T471 326T500 288Q508 270 509 250T511 210ZM259 541H255Q229 541 221 532T212 499V486Q212 470 213 461T220 445T234 435T259 426V541ZM369 203Q369 218 365 226T354 238T338 245T317 254V126Q339 127 350 132T365 146T369 170T369 203Z"  />
<glyph unicode="%" horiz-adv-x="931" d="M871 178Q871 138 864 103T840 43T792 2T716 -13Q670 -13 640 1T593 42T568 102T561 178Q561 218 568 253T592 314T640 354T716 369Q762 369 792 354T839 314T864 253T871 178ZM764 178Q764 186 764 198T762 224T758 248T751 268Q746 276 735 278T716 281Q708 281 697 279T680 268Q676 260 674 249T671 224T669 199T668 178Q668 170 668 158T670 132T674 107T680 88Q685 80 696 78T716 75Q724 75 735 77T751 88Q755 95 757 107T761 132T763 157T764 178ZM704 653Q704 644 699 634L334 -18Q327 -29 316 -34T292 -40Q285 -40 282 -38L236 -10Q229 -6 227 1T225 16Q225 25 230 35L596 687Q608 709 636 709Q643 709 646 707L693 679Q700 675 702 668T704 653ZM369 490Q369 450 362 415T338 355T290 314T214 299Q167 299 138 313T91 354T67 414T60 490Q60 530 66 565T90 625T137 666T214 681Q260 681 290 666T337 626T362 565T369 490ZM262 490Q262 498 262 510T260 536T257 561T250 580Q245 588 234 590T214 593Q206 593 195 591T179 580Q175 572 173 561T170 536T168 511T167 490Q167 482 167 470T169 444T173 419T179 400Q184 392 195 390T214 387Q222 387 233 389T250 400Q254 407 256 419T260 444T261 469T262 490Z"  />
<glyph unicode="&amp;" horiz-adv-x="701" d="M660 62Q660 53 652 41T633 16T609 -4T588 -13Q580 -13 569 -7T546 9T524 27T508 43Q470 7 420 -4T318 -16Q268 -16 222 -10T139 15T82 72T60 170Q60 206 66 234T85 286T119 329T173 365Q142 399 123 437T104 523Q104 568 120 598T163 646T227 672T302 680Q346 680 385 675T453 652T499 604T516 520Q516 485 504 459T471 411T425 373T372 340Q422 283 478 231Q485 254 486 278T493 325Q497 345 506 354T537 363H570Q598 363 605 351T612 313Q612 294 609 272T601 228T589 186T573 148Q580 143 594 132T623 109T649 83T660 62ZM373 520Q373 536 367 544T350 555T327 558T302 558Q273 558 261 551T249 513Q249 488 263 464T295 423Q328 439 350 459T373 520ZM409 128Q371 161 335 197T264 270Q246 259 236 252T219 234T211 211T209 177Q209 166 210 154T216 132Q221 121 234 117T262 110T293 108T318 109Q340 109 365 111T409 128Z"  />
<glyph unicode="&apos;" horiz-adv-x="225" d="M107 571Q84 571 69 580T52 614Q51 625 49 639T46 667T43 696T42 720Q42 744 60 751T98 759H133Q152 759 168 749T184 718Q184 708 183 695T181 667T177 638T174 614Q172 591 159 581T123 571H107Z"  />
<glyph unicode="(" horiz-adv-x="333" d="M338 -136Q305 -135 273 -132T212 -120T159 -91T117 -40Q97 -4 86 43T69 141T62 242T60 333Q60 374 61 424T69 524T86 622T117 706Q134 738 158 757T211 786T272 800T338 804V667Q311 667 292 664T260 651T237 626T222 583Q207 522 205 460T202 334Q202 271 204 209T222 85Q228 59 237 43T259 17T292 5T338 1V-136H338Z"  />
<glyph unicode=")" horiz-adv-x="334" d="M274 333Q274 292 272 242T264 142T247 44T216 -40Q198 -72 174 -91T122 -119T61 -132T-5 -136V1Q22 1 41 4T74 17T97 42T112 85Q127 146 129 208T131 334Q131 397 129 459T112 583Q106 609 97 625T75 651T42 663T-5 667V804Q28 803 60 800T121 787T174 757T216 706Q235 670 246 623T264 525T272 424T274 333Z"  />
<glyph unicode="*" horiz-adv-x="397" d="M356 582Q356 569 350 561T334 548T313 539T292 532Q296 526 302 518T315 500T326 482T331 463Q331 454 324 444T307 425T286 411T266 405Q254 405 245 413T228 431L198 472L169 431Q162 421 153 413T131 405Q122 405 111 410T90 425T72 444T65 463Q65 471 69 481T80 500T94 518T105 532Q95 535 84 539T64 548T48 562T41 583Q41 594 46 607Q51 623 59 639T88 655Q102 655 116 649T144 638Q144 662 145 677T152 702T172 714T212 718Q231 718 240 711T252 691T255 665T254 638Q267 643 281 649T310 655Q330 655 338 639T351 607Q356 594 356 582Z"  />
<glyph unicode="+" horiz-adv-x="576" d="M355 211V45H222V211H46V333H222V499H355V333H530V211H355Z"  />
<glyph unicode="&#x2c;" horiz-adv-x="324" d="M264 77Q264 68 257 48T237 4T210 -47T181 -97T154 -138T134 -163Q119 -176 103 -176Q93 -176 81 -171T58 -158T40 -138T32 -116Q32 -109 42 -92T65 -54T90 -15T107 13Q93 26 77 42T60 78Q60 88 64 95T74 109Q80 116 90 128T113 153T138 174T159 183Q168 183 180 175T206 156T230 133T248 115Q256 106 260 98T264 77Z"  />
<glyph unicode="-" horiz-adv-x="476" d="M434 248Q434 222 417 216T377 210H96Q88 210 78 211T60 215T47 224T41 242V299Q41 308 47 314T61 323T79 328T96 329H377Q384 329 394 328T413 324T428 315T434 299V248H434Z"  />
<glyph unicode="." horiz-adv-x="319" d="M259 84Q259 71 249 54T223 20T191 -7T161 -18Q147 -18 130 -8T97 18T71 51T60 81Q60 94 70 111T96 145T129 172T159 183Q172 183 189 173T222 147T248 115T259 84Z"  />
<glyph unicode="/" horiz-adv-x="363" d="M108 -31Q97 -31 87 -27T67 -17Q52 -9 38 1T23 31Q23 44 30 60L297 679Q303 693 312 703T339 713Q347 713 354 711T369 705Q379 700 388 696T405 685T417 671T422 649Q422 637 417 624L151 5Q145 -9 135 -20T108 -31Z"  />
<glyph unicode="0" horiz-adv-x="639" d="M578 334Q578 266 568 204T530 93T451 16T320 -13Q239 -13 189 16T111 93T72 203T62 334Q62 401 72 464T110 575T189 652T320 681Q401 681 451 652T529 575T568 464T578 334ZM424 334Q424 351 423 375T420 423T412 471T400 510Q389 533 367 541T320 549Q296 549 273 541T239 510Q231 495 227 472T220 424T217 375T216 334Q216 317 217 293T220 244T226 196T239 158Q250 135 273 127T320 119Q344 119 366 127T400 158Q407 174 412 197T419 244T423 293T424 334Z"  />
<glyph unicode="1" horiz-adv-x="639" d="M416 54Q416 28 404 14T365 0H329Q298 0 282 10T265 54V516Q261 514 253 511T235 504T218 498T205 495Q190 495 181 501T168 517T162 539T160 564Q160 586 169 598T198 618Q239 635 279 651T365 668Q389 668 402 654T416 616V54H416Z"  />
<glyph unicode="2" horiz-adv-x="639" d="M526 51Q526 24 512 12T471 0H113Q91 0 81 7T66 26T61 53T61 84Q61 99 67 112T82 137T103 159T124 180L219 276Q237 294 255 311T290 349Q302 363 315 379T340 414T358 451T366 491Q366 529 354 539T304 550Q279 550 254 548T205 542Q192 540 177 537T149 533Q132 533 123 540T109 559T103 584T99 611Q99 614 99 616T98 622Q98 645 113 655T149 669Q187 674 226 677T304 681Q348 681 387 673T457 644T504 591T522 507Q522 445 498 392T435 293T351 206T263 128Q315 130 367 132T471 134Q493 134 504 127T520 109T525 82T526 51Z"  />
<glyph unicode="3" horiz-adv-x="639" d="M538 206Q538 90 477 39T303 -13Q292 -13 270 -12T222 -7T169 1T120 15T83 35T69 62Q69 78 75 93T86 123Q91 137 101 146T128 156Q138 156 147 153Q187 140 225 130T307 120Q354 120 370 139T386 204Q386 247 365 260T305 275Q274 277 244 277T183 276Q162 276 153 284T140 304T137 331T138 362Q138 384 151 393T185 403H250Q280 403 301 404T336 414T355 440T361 491Q361 513 356 525T341 544T315 551T280 553Q239 553 199 547Q188 545 176 542T152 539Q135 539 126 547T113 568T108 594T106 621V627Q106 639 110 647T124 663Q130 668 151 671T198 677T245 680T277 681Q325 681 368 674T442 646T492 590T511 499Q511 460 501 426T462 363Q508 337 523 297T538 206Z"  />
<glyph unicode="4" horiz-adv-x="639" d="M557 208Q557 190 552 180T537 164T514 158T487 156V54Q487 34 481 23T465 7T441 1T410 0Q379 0 363 10T346 54V156H160H106Q90 156 79 164T61 186T51 214T47 243Q47 268 62 288L339 643Q347 653 357 660T381 668H436Q460 668 473 654T487 616V290Q513 290 527 286T548 272T556 246T557 208ZM346 459L211 281Q245 283 278 283T346 286V459Z"  />
<glyph unicode="5" horiz-adv-x="639" d="M542 213Q542 103 481 45T310 -13Q294 -13 268 -11T213 -4T159 6T119 19Q106 26 100 34T93 58Q93 70 95 86T104 116T121 141T146 152Q151 152 160 150T178 144T197 138T213 134Q236 127 260 123T309 118Q356 118 373 145T391 216Q391 232 388 253T376 288Q372 295 362 299T339 304T315 306T296 306Q277 306 259 305T223 301Q210 299 197 297T171 295Q150 295 136 306T122 341V346L144 614Q146 641 157 654T198 668H477Q497 668 508 662T524 646T530 621T531 591Q531 563 519 549T477 534H431Q393 534 356 534T280 536L269 434Q278 435 287 435T305 435Q330 435 356 434T408 428Q446 420 472 399T513 347T535 282T542 213Z"  />
<glyph unicode="6" horiz-adv-x="639" d="M563 213Q563 152 546 109T497 39T419 0T315 -13Q276 -13 237 -6T164 23Q134 42 117 67T91 121T80 183T78 247Q78 281 79 318T83 392T91 466T106 536Q119 582 143 610T200 654T272 675T354 681Q382 681 409 680T465 676Q495 674 510 664T526 620V589Q526 567 514 555T479 543Q466 543 454 545T428 549Q402 551 376 552T324 553Q304 553 287 548T260 523Q256 514 253 501T246 474T241 447T238 423Q266 428 294 431T351 435Q465 435 514 380T563 213ZM412 221Q412 241 410 256T401 283T381 299T346 305Q317 305 289 301T232 289Q231 272 231 256T230 222Q230 192 233 172T247 140T277 123T328 118Q356 118 373 124T398 143T409 175T412 221Z"  />
<glyph unicode="7" horiz-adv-x="639" d="M547 618Q547 604 542 592L312 68Q307 56 301 44T287 23T269 7T243 0H192Q173 0 159 9T144 39Q144 49 149 62T160 86L360 538Q308 536 257 535T154 534Q132 534 121 541T106 559T101 586T100 617Q100 644 114 656T154 668H465Q479 668 493 667T520 661T539 646T547 618Z"  />
<glyph unicode="8" horiz-adv-x="639" d="M562 184Q562 122 545 84T495 24T419 -5T320 -13Q267 -13 222 -5T145 25T95 85T77 184Q77 216 83 238T101 278T132 308T179 337Q154 354 137 370T110 405T96 447T91 500Q91 559 107 594T153 649T225 675T320 681Q372 681 414 675T487 650T533 595T549 500Q549 443 526 406T456 338Q481 324 501 310T534 278T555 237T562 184ZM397 498Q397 509 397 519T395 538T386 552T365 557H280Q263 557 255 553T244 542T241 523T242 498Q242 477 247 463T263 439T286 421T316 403Q332 412 346 420T372 438T390 463T397 498ZM411 181Q411 199 402 212T380 236T351 253T321 268Q308 261 292 253T262 235T239 212T229 181Q229 158 233 145T248 124T273 115T308 113H333Q353 113 367 115T392 124T406 144T411 181Z"  />
<glyph unicode="9" horiz-adv-x="639" d="M564 365Q564 285 558 216T526 96T444 16T290 -13Q271 -13 248 -12T200 -7T152 2T112 15Q97 21 89 30T81 56Q81 67 84 78T90 100Q96 118 104 132T135 147Q140 147 147 145T163 140T179 134T193 130Q220 122 249 119T307 116Q346 116 366 127T395 158T405 204T408 261Q380 253 352 250T295 247Q192 247 137 297T81 453Q81 571 141 626T318 681Q398 681 446 658T521 593T555 493T564 365ZM409 397Q409 409 409 421T408 446Q407 473 404 493T391 526T363 547T314 554Q286 554 270 548T246 530T235 500T232 455Q232 433 234 419T244 395T264 383T300 379Q328 379 355 384T409 397Z"  />
<glyph unicode=":" horiz-adv-x="319" d="M259 355Q259 342 249 325T223 291T191 264T161 253Q147 253 130 263T97 289T71 322T60 352Q60 365 70 382T96 416T129 443T159 454Q172 454 189 444T222 418T248 386T259 355ZM259 83Q259 70 249 53T223 20T191 -7T161 -18Q147 -18 130 -8T97 18T71 50T60 81Q60 94 70 111T96 145T129 171T159 182Q172 182 189 172T222 146T248 114T259 83Z"  />
<glyph unicode=";" horiz-adv-x="324" d="M258 355Q258 342 248 325T222 291T190 264T160 253Q147 253 130 263T97 289T70 322T59 352Q59 365 69 382T95 416T128 443T158 454Q171 454 188 444T221 418T247 385T258 355ZM264 77Q264 68 257 48T237 4T210 -47T181 -97T154 -138T134 -163Q119 -176 103 -176Q93 -176 81 -171T58 -158T40 -138T32 -116Q32 -109 42 -92T65 -54T90 -15T107 13Q93 26 77 42T60 78Q60 88 64 95T74 109Q80 116 90 128T113 153T138 174T159 183Q168 183 180 175T206 156T230 133T248 115Q256 106 260 98T264 77Z"  />
<glyph unicode="&lt;" horiz-adv-x="726" d="M51 275V367L658 594V457L285 321L658 185V48L51 275Z"  />
<glyph unicode="=" horiz-adv-x="523" d="M46 312V415H477V312H46ZM46 129V232H477V129H46Z"  />
<glyph unicode="&gt;" horiz-adv-x="726" d="M69 48V185L442 321L69 457V594L675 367V275L69 48Z"  />
<glyph unicode="?" horiz-adv-x="516" d="M465 521Q465 483 450 457T411 409T360 368T309 326Q296 313 286 300T276 266Q276 251 268 245T247 236T222 234T198 235Q177 235 167 240T152 254T148 276T148 306Q148 330 160 349T190 385T229 416T268 446T298 477T310 513Q310 542 295 549T253 557Q221 557 190 552T127 542Q122 541 116 540T105 539Q88 539 79 548T66 571T61 600T60 628Q60 649 72 658T104 670Q180 682 258 682Q301 682 338 676T404 651T448 602T465 521ZM317 84Q317 71 307 54T281 20T249 -7T219 -18Q206 -18 189 -8T156 18T129 51T118 81Q118 94 128 111T154 145T187 172T217 183Q230 183 247 173T280 147T306 115T317 84Z"  />
<glyph unicode="@" horiz-adv-x="1097" d="M1014 226Q1014 173 1002 128T965 48T898 -6T800 -26Q755 -26 717 -11T651 40Q612 9 569 -2T476 -13Q402 -13 362 24T321 137Q321 189 339 220T388 269T459 292T542 298Q578 298 614 295Q614 307 614 320T611 346T598 365T573 373Q536 373 499 367T425 353Q420 352 416 352T406 351Q390 351 382 356T369 369T365 389T364 412Q364 435 372 445T402 462Q413 465 435 468T483 474T532 478T568 480Q649 480 689 457T745 395T761 301T761 184Q761 171 761 156T766 128T779 105T806 96Q813 96 820 97T833 101Q844 107 850 120T859 150T862 181T863 207Q863 289 854 357T815 473T727 548T574 575Q475 575 410 556T305 493T251 383T235 220Q235 145 251 86T302 -15T393 -78T529 -100Q580 -100 627 -90T722 -64Q729 -61 738 -61Q750 -61 757 -66T770 -81T779 -100T786 -119Q788 -124 789 -130T790 -142Q790 -160 779 -169T753 -183Q728 -192 698 -199T636 -211T573 -218T514 -221Q403 -221 322 -190T188 -100T109 43T83 234Q83 353 116 439T211 582T364 666T570 694Q687 694 771 663T909 573T988 426T1014 226ZM623 130Q618 146 616 164T615 200Q605 200 596 201T577 202Q561 202 541 202T504 197T474 181T462 147Q462 141 463 131T467 112T475 97T490 90Q531 90 559 100T623 130Z"  />
<glyph unicode="A" horiz-adv-x="645" d="M631 40Q631 19 617 10T584 0H529Q506 0 493 10T471 41L440 123Q320 120 200 123L173 48Q164 23 152 12T111 0H65Q44 0 29 5T14 35Q14 41 17 51T23 68L229 621Q237 643 247 654T271 669T302 673T340 672Q369 672 384 661T410 622L627 59Q629 54 630 50T631 40ZM319 463L242 241H396L319 463Z"  />
<glyph unicode="B" horiz-adv-x="613" d="M552 204Q552 163 542 124T502 53Q467 17 420 9T324 0H132Q103 0 88 11T72 54V617Q72 647 89 657T132 668H280Q317 668 359 667T435 650Q459 638 474 621T500 583T514 538T518 489Q518 454 510 422T475 364Q499 352 514 335T537 297T549 253T552 204ZM367 478Q367 488 366 501T359 523Q351 537 340 538T315 539Q293 539 272 539T229 538V392H271Q299 392 317 394T347 404T362 430T367 478ZM396 204Q396 224 392 240T366 262Q344 267 322 268T277 269H229V130Q240 129 251 129T273 129H296Q319 129 337 130T369 138T389 160T396 204Z"  />
<glyph unicode="C" horiz-adv-x="575" d="M534 37Q534 23 529 15T514 2T494 -5T471 -8Q442 -10 414 -11T356 -13Q265 -13 207 8T115 72T68 178T55 326Q55 370 58 419T76 513T117 594T192 651Q230 666 272 670T356 675Q385 675 413 674T471 670Q483 669 494 667T514 661T528 648T534 625V593Q534 563 525 549T484 535Q457 535 430 537T376 540Q366 540 352 540T322 538T294 534T271 528Q247 517 235 492T219 437T215 377T216 325Q216 298 216 266T223 205T248 155T301 126Q319 122 338 122T376 122Q403 122 430 124T484 127Q506 127 517 120T531 100T535 71T534 37Z"  />
<glyph unicode="D" horiz-adv-x="664" d="M609 327Q609 243 596 182T548 80T456 20T307 0H132Q103 0 88 11T72 54V617Q72 647 89 657T132 668H307Q347 668 390 664T471 646Q519 628 546 593T588 513T605 420T609 327ZM448 357V367Q448 386 448 409T442 454T425 494T392 521Q383 525 370 527T341 530T312 532T288 533Q273 533 258 533T229 532V136Q243 134 258 134T288 135Q345 135 377 144T425 176T444 235T448 325V357Z"  />
<glyph unicode="E" horiz-adv-x="552" d="M497 51Q497 25 483 13T443 0H132Q103 0 88 11T72 54V617Q72 647 89 657T132 668H443Q463 668 474 662T490 646T496 621T497 591Q497 563 485 549T443 534Q389 534 336 535T229 537V409Q277 410 324 411T420 412Q439 412 450 407T466 392T473 370T475 342Q475 314 462 300T420 285Q372 285 325 286T229 288V131Q283 132 336 133T443 134Q465 134 476 127T491 109T496 82T497 51Z"  />
<glyph unicode="F" horiz-adv-x="509" d="M478 591Q478 563 465 549T423 534Q374 534 326 535T229 537V410Q273 411 316 411T404 412Q423 412 433 407T449 392T456 370T458 342Q458 314 446 300T404 285Q360 285 317 286T229 288V54Q229 0 175 0H132Q103 0 88 11T72 54V617Q72 647 89 657T132 668H423Q444 668 455 662T471 646T477 622T478 591Z"  />
<glyph unicode="G" horiz-adv-x="635" d="M569 67Q569 39 557 27T518 6Q482 -5 438 -9T356 -13Q265 -13 207 8T115 72T68 178T55 326Q55 370 58 419T76 513T117 594T192 651Q230 666 272 670T356 675Q393 675 430 674T505 668Q517 667 528 665T547 659T561 646T567 623V590Q567 560 558 546T517 532Q504 532 492 533T467 536Q444 538 422 539T376 540Q366 540 352 540T322 538T294 534T271 528Q247 517 235 492T219 437T215 377T216 325Q216 298 216 266T224 205T248 154T301 126Q319 122 338 122T376 122Q385 122 394 123T412 126V285H332Q313 285 302 290T286 305T280 327T278 355Q278 383 290 397T332 412H514Q540 412 554 399T569 360V67H569Z"  />
<glyph unicode="H" horiz-adv-x="678" d="M606 54Q606 31 597 20T574 4T543 -1T509 0Q480 0 465 11T449 54V293Q339 290 229 293V54Q229 30 221 19T198 4T167 -1T132 0Q103 0 88 11T72 54V617Q72 640 82 651T107 665T141 669T175 668Q201 668 215 656T229 617V419Q339 422 449 419V617Q449 640 459 651T484 665T517 669T551 668Q577 668 591 656T606 617V54H606Z"  />
<glyph unicode="I" horiz-adv-x="308" d="M232 54Q232 0 178 0H135Q106 0 91 11T75 54V617Q75 647 92 657T135 668H178Q204 668 218 656T232 617V54H232Z"  />
<glyph unicode="J" horiz-adv-x="364" d="M309 300Q309 271 309 242T307 183Q303 129 285 93T235 34T163 3T70 -7Q63 -7 52 -6T28 -3T5 4T-11 14Q-23 29 -23 50T-22 89Q-22 109 -9 121T23 133Q37 133 51 131T80 129Q95 129 114 131T141 150Q146 160 148 180T151 223T152 266T152 298V538Q133 537 115 537T78 537Q57 537 46 543T30 561T25 586T24 617Q24 643 38 655T78 668H256Q309 668 309 617V300H309Z"  />
<glyph unicode="K" horiz-adv-x="615" d="M601 39Q601 18 587 9T554 0H485Q462 0 447 6T417 29L229 230V54Q229 31 221 20T198 4T167 -1T132 0Q103 0 88 11T72 54V617Q72 640 82 651T107 665T141 669T175 668Q201 668 215 656T229 617V420L416 638Q429 653 441 659T468 668T498 669T532 668Q551 668 565 660T580 630Q580 612 567 597L323 334L583 80Q601 62 601 39Z"  />
<glyph unicode="L" horiz-adv-x="482" d="M468 51Q468 25 454 13T414 0H132Q103 0 88 11T72 54V617Q72 647 89 657T132 668H175Q201 668 215 656T229 617V132Q276 133 321 133T414 134Q436 134 447 127T462 109T467 82T468 51Z"  />
<glyph unicode="M" horiz-adv-x="819" d="M768 49Q768 27 758 17T732 3T699 -1T666 0Q614 0 611 52L588 392Q571 349 556 307T526 220Q517 194 508 169T488 118Q480 100 472 91T453 77T429 73T397 72Q370 72 356 83T332 118Q321 143 312 168T293 220Q278 264 263 306T230 392L208 52Q206 29 198 19T176 4T145 -1T111 0Q86 0 69 10T51 49V57L102 619Q104 648 120 658T162 668H218Q241 668 255 661T280 631Q293 602 304 572T326 511Q347 454 367 397T410 283Q432 340 452 397T494 511Q505 541 516 571T540 631Q550 653 564 660T601 668H657Q683 668 699 658T717 619L768 57V49H768Z"  />
<glyph unicode="N" horiz-adv-x="709" d="M637 54Q637 33 630 22T611 6T584 1T553 0Q531 0 517 4T488 25Q463 54 441 86T395 149Q352 209 310 268T226 387V54Q226 31 218 20T196 5T165 0T132 0Q103 0 88 11T72 54V617Q72 638 80 648T100 663T127 668T158 668Q179 668 191 664T218 643Q243 613 265 581T310 518L483 278V617Q483 640 492 651T517 665T549 669T583 668Q609 668 623 656T637 617V54H637Z"  />
<glyph unicode="O" horiz-adv-x="705" d="M650 333Q650 257 635 193T586 81T494 6T352 -21Q268 -21 211 6T120 80T70 192T55 333Q55 409 69 474T118 586T210 660T352 687Q437 687 494 660T585 586T635 474T650 333ZM488 333Q488 349 488 371T485 416T478 460T467 496Q450 530 419 540T352 551Q317 551 286 541T238 496Q231 481 227 460T221 417T218 372T217 333Q217 316 217 295T220 251T227 207T238 171Q255 137 286 126T352 115Q387 115 418 126T467 171Q474 186 478 207T484 250T487 294T488 333Z"  />
<glyph unicode="P" horiz-adv-x="603" d="M553 430Q553 400 550 371T536 315T508 266T460 230Q436 219 407 214T346 208T285 207T229 208V54Q229 30 220 19T197 4T166 -1T132 0Q103 0 88 11T72 54V617Q72 647 89 657T132 668H318Q344 668 368 668T414 663T457 649T498 619Q516 601 526 579T543 531T551 480T553 430ZM314 535Q293 535 272 535T229 534V341H337Q348 341 363 343T387 355Q391 360 393 369T396 388T397 409T397 426Q397 435 397 450T395 482T389 511T376 529Q371 531 363 532T346 534T329 535T314 535Z"  />
<glyph unicode="Q" horiz-adv-x="705" d="M650 328Q650 292 648 257T638 189T616 124T578 63Q522 -5 435 -23Q442 -31 457 -34T489 -38T522 -38T549 -37Q568 -37 577 -44T591 -62T595 -87T594 -117Q594 -126 593 -135T587 -152Q581 -160 570 -164T547 -171T522 -173T500 -174Q458 -174 421 -168T352 -144T300 -98T269 -23Q180 -5 126 63Q103 92 89 123T68 188T58 257T55 328Q55 404 69 469T118 583T209 659T352 687Q437 687 494 660T586 584T635 470T650 328ZM488 328Q488 345 488 367T485 412T479 456T467 493Q450 527 419 538T352 550Q317 550 286 539T238 493Q231 478 227 457T221 412T218 367T217 328Q217 311 217 289T220 245T227 201T238 164Q255 129 286 118T352 107Q387 107 418 118T467 164Q474 179 478 200T484 244T487 289T488 328Z"  />
<glyph unicode="R" horiz-adv-x="633" d="M587 37Q587 16 573 8T541 0H481Q458 0 442 6T410 31L243 235H229V54Q229 30 220 19T197 4T166 -1T132 0Q103 0 88 11T72 54V617Q72 647 89 657T132 668H318Q345 668 369 668T415 663T457 649T498 619Q516 601 526 579T543 531T551 480T553 430Q553 397 547 367T527 312T489 269T430 242L571 78Q587 60 587 37ZM397 438Q397 446 397 459T394 487T388 513T376 529Q371 531 363 532T346 534T329 535T314 535H286Q272 535 258 535T229 534V368H331Q353 368 366 371T386 381T395 402T397 438Z"  />
<glyph unicode="S" horiz-adv-x="559" d="M504 210Q504 195 504 176T501 138T495 101T484 70Q469 43 444 27T388 3T326 -7T266 -9Q229 -9 192 -8T117 -2Q105 -1 94 1T75 7T61 20T55 43V76Q55 106 64 120T105 134Q121 134 136 133T167 130Q196 127 224 127T281 126Q310 126 324 128T344 138T350 162T350 205Q350 225 346 234T322 251Q290 265 259 276T195 302Q154 319 129 333T89 368T69 417T63 491Q63 555 79 592T125 647T198 670T298 675Q330 675 363 674T428 670Q440 669 451 668T471 661T485 648T491 625V593Q491 563 482 549T441 535Q414 535 387 537T333 540Q315 540 297 540T260 541Q232 541 225 531T217 494V482Q217 460 221 452T245 435Q265 426 286 418T328 402Q354 391 379 381T428 357Q453 343 468 329T491 298T501 259T504 210Z"  />
<glyph unicode="T" horiz-adv-x="594" d="M567 591Q567 563 555 549T513 534Q478 534 445 534T376 536V54Q376 30 368 19T345 4T314 -1T279 0Q250 0 235 11T219 54V536Q184 535 151 535T82 534Q60 534 49 541T34 559T29 586T28 617Q28 643 42 655T82 668H513Q533 668 544 662T560 646T566 622T567 591Z"  />
<glyph unicode="U" horiz-adv-x="697" d="M632 393Q632 338 631 283T620 174Q609 116 586 79T528 21T448 -7T348 -15Q275 -15 226 -1T145 39T97 101T73 183T65 282T64 393V617Q64 640 74 651T99 665T132 669T166 668Q192 668 206 656T221 617V332Q221 314 221 292T222 246T228 201T241 162Q248 147 260 139T287 127T317 122T348 121Q363 121 379 121T409 126T435 138T455 162Q463 179 467 201T473 246T475 291T475 332V617Q475 640 485 651T511 665T545 669T579 668Q632 668 632 617V393H632Z"  />
<glyph unicode="V" horiz-adv-x="684" d="M652 633Q652 626 649 617T644 600L438 50Q429 27 418 17T393 3T362 -1T322 0Q293 0 278 11T252 50L36 609Q34 614 33 618T32 628Q32 649 46 658T79 668H140Q164 668 177 658T199 626L347 220L490 620Q498 642 508 652T533 666T564 669T602 668Q623 668 637 663T652 633Z"  />
<glyph unicode="W" horiz-adv-x="871" d="M839 625Q839 620 839 617T837 608L705 45Q699 19 685 10T644 0H579Q554 0 541 10T520 44Q497 111 477 178T436 314Q416 246 396 179T352 44Q344 21 330 11T291 0H226Q200 0 187 9T167 45L34 608Q32 618 32 623Q32 652 50 660T94 668H144Q170 668 181 656T198 619L278 220Q292 265 304 310T328 400Q336 426 342 453T359 506Q366 523 376 531T398 542T425 545T455 544Q498 544 513 506Q523 481 529 455T544 403L595 223L674 619Q678 642 687 652T710 666T740 669T777 668Q800 668 819 660T839 625Z"  />
<glyph unicode="X" horiz-adv-x="678" d="M625 39Q625 19 612 10T580 0H518Q492 0 478 7T450 36L335 205L211 36Q198 19 187 11T163 1T135 -1T98 0Q79 0 66 9T52 39Q52 56 64 73L249 329L70 590Q65 598 61 607T56 626Q56 646 68 655T97 667T133 669T163 668Q183 668 199 661T226 637L345 463L472 638Q482 651 493 657T518 666T546 669T576 668Q595 668 610 660T625 629Q625 618 621 608T611 589L431 339L614 73Q625 57 625 39Z"  />
<glyph unicode="Y" horiz-adv-x="637" d="M399 54Q399 31 391 20T368 4T337 -1T302 0Q273 0 258 11T242 54V251L43 592Q38 600 35 608T32 626Q32 646 43 655T71 667T106 669T136 668Q159 668 172 661T196 634L322 415L451 635Q460 651 471 658T496 667T523 669T555 668Q575 668 590 659T605 626Q605 609 595 592L399 259V54Z"  />
<glyph unicode="Z" horiz-adv-x="580" d="M541 51Q541 25 527 13T487 0H84Q63 0 48 13T32 48Q32 62 37 75T51 100L327 537Q217 534 109 534Q87 534 76 541T60 559T55 586T54 617Q54 644 68 656T109 668H504Q523 668 535 659T548 629Q548 610 537 594L241 126Q303 129 364 131T487 134Q509 134 520 127T535 109T540 82T541 51Z"  />
<glyph unicode="[" horiz-adv-x="334" d="M389 -84Q389 -110 375 -123T335 -137H133Q102 -137 86 -127T69 -82V751Q69 780 82 792T124 805H335Q354 805 364 800T380 785T387 762T389 733Q389 705 377 691T335 676Q303 676 271 677T207 680V-12Q239 -10 271 -9T335 -8Q355 -8 366 -14T382 -30T388 -54T389 -84Z"  />
<glyph unicode="\" horiz-adv-x="397" d="M356 31Q356 11 342 1T312 -17Q302 -22 293 -26T272 -31Q256 -31 246 -20T229 5L-38 624Q-43 637 -43 650Q-43 663 -39 671T-27 686T-9 696T11 705Q19 708 26 710T42 713Q58 713 67 703T83 679L349 60Q356 44 356 31Z"  />
<glyph unicode="]" horiz-adv-x="334" d="M265 -82Q265 -117 249 -127T201 -137H0Q-19 -137 -30 -132T-46 -117T-53 -94T-55 -65Q-55 -37 -42 -23T0 -8Q32 -8 64 -9T128 -12V680Q96 678 64 677T0 676Q-20 676 -31 682T-48 698T-54 722T-55 752Q-55 779 -41 792T0 805H210Q238 805 251 793T265 751V-82H265Z"  />
<glyph unicode="^" horiz-adv-x="574" d="M367 362L287 501L207 362H46L238 689H337L528 362H367Z"  />
<glyph unicode="_" horiz-adv-x="393" d="M393 -201Q393 -227 376 -233T336 -239H55Q47 -239 37 -238T19 -234T6 -225T0 -207V-160Q0 -151 6 -145T20 -136T38 -131T55 -130H336Q343 -130 353 -131T372 -135T387 -144T393 -160V-201H393Z"  />
<glyph unicode="`" horiz-adv-x="255" d="M255 592Q255 574 240 569T210 564H161Q144 564 130 571T104 588T81 611T60 634Q55 640 45 649T25 669T8 690T0 708Q0 719 8 725T29 734T53 737T74 738Q88 738 109 738T143 730Q150 726 168 707T205 664T240 619T255 592Z"  />
<glyph unicode="a" horiz-adv-x="545" d="M481 53Q481 32 475 21T457 6T430 1T399 0Q382 0 365 3T340 25Q307 7 271 -3T196 -13Q120 -13 81 26T41 141Q41 193 59 225T107 276T178 300T262 307Q298 307 334 304Q334 316 334 330T331 356T319 376T293 384Q256 384 219 378T145 364Q140 363 136 363T126 362Q110 362 102 367T89 381T85 401T84 424Q84 445 92 458T122 476Q138 480 159 483T204 489T249 492T288 494Q307 494 328 492T370 485T408 471T441 446Q456 429 464 410T476 370T480 327T481 284V53ZM335 206Q325 206 316 207T297 208Q280 208 260 208T223 202T194 186T182 151Q182 145 183 135T187 116T195 100T210 93Q230 93 245 95T275 102T304 114T335 133V206Z"  />
<glyph unicode="b" horiz-adv-x="577" d="M523 250Q523 186 512 137T474 55T402 4T288 -13Q247 -13 207 -11T126 -1Q102 4 85 15T68 54V634Q68 658 77 669T100 685T132 689T168 688Q192 688 205 673T219 634V486Q247 490 275 492T331 494Q391 494 428 476T487 426T515 348T523 250ZM370 252Q370 275 368 297T361 341Q356 363 344 366T311 370Q288 370 265 367T219 359V118Q236 115 254 113T290 111Q310 111 330 116T359 143Q362 153 364 167T368 197T369 226T370 252Z"  />
<glyph unicode="c" horiz-adv-x="497" d="M446 37Q446 32 446 26T444 15Q441 8 433 4T416 -3T396 -7T380 -9Q358 -11 337 -12T294 -13Q220 -13 174 -1T101 41T64 119T54 240Q54 311 64 359T101 438T174 481T294 494Q316 494 337 493T380 489Q386 488 395 487T414 484T432 478T443 468Q445 463 445 458T446 448V444Q446 431 445 416T440 388T426 367T398 358Q388 358 378 359T358 362Q335 365 311 367T264 370Q244 370 234 367T218 357T212 338T210 309Q208 292 208 275T208 240Q208 217 209 194T212 148Q213 134 216 127T226 116T241 112T264 111Q288 111 311 113T359 119Q369 121 378 122T398 123Q417 123 431 109Q435 105 437 96T442 75T445 53T446 37Z"  />
<glyph unicode="d" horiz-adv-x="578" d="M514 55Q514 32 507 21T488 4T460 -1T427 -1Q413 -1 398 1T372 16Q342 2 311 -5T247 -13Q193 -13 156 7T97 62T64 141T54 233Q54 291 65 339T103 422T173 475T280 494Q301 494 321 492T363 488V634Q363 658 372 669T395 685T426 689T462 688Q486 688 500 673T514 634V55ZM363 359Q342 364 320 367T276 370Q266 370 258 370T241 364Q228 358 221 339T211 298T207 254T206 221Q206 205 208 186T216 151T234 123T268 111Q292 111 318 123T363 149V359Z"  />
<glyph unicode="e" horiz-adv-x="545" d="M490 263Q490 244 489 231T483 210T467 198T436 194H201V178Q201 132 220 116T285 100Q318 100 351 105T416 117Q422 119 429 120T442 122Q456 122 464 116T477 99T482 77T483 54Q483 28 473 17T437 0Q402 -7 361 -10T284 -13Q216 -13 172 2T101 47T65 125T54 237Q54 300 63 348T96 429T165 477T279 494Q341 494 381 480T446 436T480 364T490 263ZM347 317Q347 355 333 368T280 381Q256 381 241 376T218 359T206 332T202 293H347V317Z"  />
<glyph unicode="f" horiz-adv-x="404" d="M391 628Q391 617 390 606T385 584T373 568T350 562Q340 562 332 564T314 568Q302 570 290 571T265 572Q250 572 244 568T235 557T232 538T233 514V479H309Q344 479 355 464T366 416Q366 384 355 369T309 353H233V56Q233 33 226 22T208 5T180 0T146 0Q114 0 98 10T82 56V353Q61 353 50 359T34 375T29 399T28 430Q28 454 43 466T82 479V514Q82 547 86 576T110 633Q126 655 147 667T191 686T240 694T292 696Q301 696 314 696T341 693T367 687T385 673Q389 667 390 660T391 646V628H391Z"  />
<glyph unicode="g" horiz-adv-x="572" d="M508 -43Q508 -72 505 -94T485 -142Q469 -165 447 -180T398 -204T345 -216T291 -220Q273 -220 247 -219T194 -216T142 -210T100 -201Q79 -194 71 -179T62 -143Q62 -131 63 -119T68 -97T82 -81T106 -74Q112 -74 118 -75T131 -79Q173 -89 214 -94T298 -100Q322 -100 334 -92T351 -69T356 -38T357 -3Q331 -8 305 -10T251 -13Q192 -13 154 4T93 52T63 126T54 224Q54 250 56 277T65 331T82 383T111 428Q133 453 158 466T210 486T266 493T327 494Q359 494 392 494T457 490Q485 487 496 475T508 435V-43ZM357 369Q345 370 333 370T309 370H289Q271 370 253 368T226 347Q221 336 218 321T212 290T209 257T208 229Q208 211 209 193T213 156Q217 126 225 114T265 101Q288 101 311 105T357 115V369Z"  />
<glyph unicode="h" horiz-adv-x="573" d="M509 56Q509 33 502 22T483 5T456 0T422 0Q390 0 374 10T358 56V297Q358 301 358 311T358 333T356 354T352 366Q347 370 341 370T329 370Q299 370 272 359T219 331V56Q219 33 212 22T193 5T166 0T132 0Q100 0 84 10T68 56V634Q68 663 81 675T123 688H168Q192 688 205 673T219 634V469Q248 482 279 488T343 494Q416 494 462 458T509 345V56H509Z"  />
<glyph unicode="i" horiz-adv-x="290" d="M222 600Q222 574 210 560T170 545H132Q101 545 85 555T68 600V634Q68 663 81 675T123 688H170Q194 688 208 673T222 634V600ZM222 56Q222 30 210 15T170 0H132Q100 0 84 10T68 56V424Q68 479 123 479H170Q194 479 208 463T222 424V56Z"  />
<glyph unicode="j" horiz-adv-x="300" d="M232 598Q232 545 180 545H141Q110 545 94 554T77 598V633Q77 688 133 688H180Q204 688 218 672T232 633V598ZM232 -1Q232 -27 231 -55T223 -110Q216 -137 199 -156T158 -187T108 -206T56 -212Q28 -212 12 -209T-11 -196T-21 -170T-23 -126Q-23 -107 -13 -90T20 -73Q33 -73 45 -76T70 -79Q74 -79 75 -75T77 -64T78 -52T77 -43V424Q77 479 133 479H180Q204 479 218 463T232 424V-1Z"  />
<glyph unicode="k" horiz-adv-x="539" d="M530 38Q530 18 514 9T481 0H416Q398 0 386 7T362 28L219 200V56Q219 33 212 22T194 5T166 0T132 0Q100 0 84 10T68 56V634Q68 658 77 669T100 685T132 689T168 688Q192 688 205 673T219 634V327L337 458Q350 472 363 475T395 479H449Q469 479 483 471T498 441Q498 428 489 417T470 398L325 269L518 64Q523 59 526 53T530 38Z"  />
<glyph unicode="l" horiz-adv-x="287" d="M219 56Q219 30 207 15T168 0H132Q100 0 84 10T68 56V634Q68 663 81 675T123 688H168Q192 688 205 673T219 634V56H219Z"  />
<glyph unicode="m" horiz-adv-x="785" d="M721 54Q721 31 714 20T695 5T667 0T634 0Q603 0 587 10T570 54V300Q570 303 570 314T570 338T567 360T558 370Q547 370 535 365T512 353T489 338T470 323V54Q470 31 463 20T444 5T416 0T383 0Q352 0 336 10T319 54V300Q319 303 319 314T319 338T316 360T307 370Q296 370 284 365T261 353T238 338T219 323V54Q219 31 212 20T193 5T165 0T132 0Q101 0 85 10T68 54V426Q68 450 77 461T100 476T133 480T168 479Q196 479 211 456Q241 473 274 483T343 494Q373 494 399 483T444 447Q479 469 515 481T594 494Q627 494 651 483T690 453T713 407T721 349V54H721Z"  />
<glyph unicode="n" horiz-adv-x="573" d="M509 54Q509 31 502 20T483 5T455 0T422 0Q391 0 375 10T358 54V301Q358 309 358 321T356 344T349 363T331 371Q299 371 271 357T219 323V54Q219 31 212 20T193 5T165 0T132 0Q101 0 85 10T68 54V426Q68 479 123 479H168Q195 479 210 457Q273 494 343 494Q378 494 408 486T461 460T496 415T509 350V54H509Z"  />
<glyph unicode="o" horiz-adv-x="592" d="M537 240Q537 118 480 53T296 -13Q170 -13 112 52T54 240Q54 362 112 428T296 494Q422 494 479 428T537 240ZM385 240Q385 264 383 294T368 345Q357 365 337 367T296 370Q275 370 255 368T223 345Q212 323 209 294T206 240Q206 229 206 215T208 187T213 159T223 135Q229 125 237 120T255 113T275 111T296 111Q306 111 316 111T336 113T354 120T368 135Q374 145 377 158T382 186T384 215T385 240Z"  />
<glyph unicode="p" horiz-adv-x="585" d="M531 241Q531 198 527 161T501 85Q486 58 464 39T415 9T359 -8T299 -13Q279 -13 259 -12T219 -6V-153Q219 -176 212 -187T193 -204T166 -209T132 -209Q100 -209 84 -199T68 -153V425Q68 449 77 460T100 476T132 480T168 479Q199 479 212 453Q246 470 282 482T357 494Q414 494 448 472T500 413T525 332T531 241ZM379 238Q379 261 377 293T369 347Q363 370 341 370Q328 370 312 365T278 353T246 338T219 324V122Q261 111 301 111Q312 111 322 112T342 117Q356 123 363 138T374 171T378 208T379 238Z"  />
<glyph unicode="q" horiz-adv-x="570" d="M506 -153Q506 -176 499 -187T480 -204T453 -209T419 -209Q387 -209 371 -199T355 -153V5Q332 -5 307 -9T257 -13Q198 -13 159 4T97 52T64 127T54 225Q54 280 64 331T109 426Q128 449 148 462T190 483T236 492T290 494Q332 494 373 493T457 487Q480 485 493 476T506 441V-153ZM355 360Q335 362 316 364T276 366Q262 366 248 364T225 347Q218 335 214 315T209 272T207 228T206 193Q206 177 208 162T216 136T233 118T265 111Q289 111 312 122T355 147V360Z"  />
<glyph unicode="r" horiz-adv-x="418" d="M395 417Q395 392 384 377T346 362Q326 362 311 360T281 354T252 342T222 325V54Q222 28 209 14T170 0H132Q101 0 85 10T68 54V426Q68 479 123 479H170Q185 479 197 473T216 453Q245 467 275 480T339 494Q360 494 377 484T395 450V417H395Z"  />
<glyph unicode="s" horiz-adv-x="523" d="M458 146Q458 93 445 62T405 14T342 -8T258 -13Q222 -13 186 -13T113 -7Q99 -5 91 -2T80 9T76 25T75 49V66Q75 88 82 105T115 122Q129 122 144 120T173 115Q198 113 222 112T272 110Q289 110 300 113T311 136Q311 142 311 148T307 160Q303 166 277 172T216 188T149 209T99 237Q79 256 72 283T64 336Q64 395 84 427T137 474T213 491T303 494Q322 494 340 494T378 492Q409 490 424 479T439 434Q439 420 438 407T433 385T419 369T391 363Q377 363 364 364T338 367Q318 369 298 370T258 371Q248 371 240 371T225 370T215 361T211 343Q211 335 214 331Q217 327 227 323T248 315T271 308T287 304Q324 293 355 285T409 261T445 219T458 146Z"  />
<glyph unicode="t" horiz-adv-x="428" d="M377 416Q377 384 366 369T320 354H244V153Q244 151 244 144T244 130T247 116T254 110Q275 110 295 117T336 125Q353 125 361 118T373 99T376 74T375 48Q375 18 364 7T323 -8Q300 -10 279 -11T234 -13Q189 -13 162 -3T119 27T98 77T93 150V354Q73 354 63 360T48 377T42 401T41 430Q41 453 56 465T93 479V550Q93 604 148 604H193Q217 604 230 589T244 550V479H320Q355 479 366 464T377 416Z"  />
<glyph unicode="u" horiz-adv-x="573" d="M504 53Q504 0 449 0H404Q390 0 380 7T362 25Q331 7 298 -3T229 -13Q194 -13 164 -5T111 22T76 67T63 132V425Q63 447 70 458T89 474T117 479T150 479Q181 479 197 469T214 425V181Q214 174 214 162T216 139T223 120T240 111Q274 111 300 125T353 159V425Q353 447 360 458T379 474T407 479T440 479Q471 479 487 469T504 425V53H504Z"  />
<glyph unicode="v" horiz-adv-x="543" d="M506 443Q506 438 505 433T502 423L353 41Q345 22 335 14T312 2T284 -1T251 0Q225 0 212 8T189 41L41 424Q39 429 38 433T37 443Q37 465 50 472T83 479H137Q162 479 175 472T197 439L273 187L348 438Q356 463 370 471T409 479H460Q477 479 491 471T506 443Z"  />
<glyph unicode="w" horiz-adv-x="755" d="M709 438Q709 427 706 418L582 32Q577 17 568 10T546 1T519 -1T492 0Q463 0 452 11T432 48L377 208L323 48Q316 27 308 17T288 3T261 -1T224 0Q204 0 192 6T173 32L48 418Q46 423 46 428T46 438Q46 457 56 465T82 477T113 480T142 479Q167 479 181 470T202 435L255 201L303 369Q308 385 317 393T338 404T363 407T391 407Q414 407 429 400T452 369L500 201L553 435Q557 456 567 465T592 478T623 480T657 479Q677 479 693 470T709 438Z"  />
<glyph unicode="x" horiz-adv-x="582" d="M532 37Q532 17 518 9T485 0H423Q406 0 396 4T374 23L292 142L206 20Q197 7 185 4T159 0H97Q79 0 65 8T51 37Q51 51 63 66T84 93L207 241L94 383Q86 393 74 410T61 442Q61 460 72 468T98 478T129 480T156 479Q185 479 198 470T228 437L291 343L354 437Q367 457 379 466T405 478T435 480T475 479Q492 479 506 471T521 442Q521 436 517 428T508 411T498 395T488 383L376 241L515 73Q520 67 526 56T532 37Z"  />
<glyph unicode="y" horiz-adv-x="559" d="M504 439Q504 431 500 421L279 -169Q271 -192 257 -199T219 -206H169Q150 -206 137 -198T123 -169Q123 -161 125 -155T131 -141L205 25L41 421Q37 429 37 441Q37 458 52 468T83 479H128Q153 479 170 475T195 444L275 195L349 433Q355 454 366 464T392 477T423 480T459 479Q477 479 490 469T504 439Z"  />
<glyph unicode="z" horiz-adv-x="515" d="M465 51Q465 25 451 13T411 0H101Q81 0 66 11T51 45V62Q51 76 56 87T70 110L263 359Q227 357 191 355T119 352Q99 352 88 358T72 374T66 398T65 427Q65 453 79 466T119 479H413Q431 479 440 473T453 458T457 435T458 409Q458 387 444 370L249 121Q290 123 330 125T411 127Q431 127 442 121T458 105T464 80T465 51Z"  />
<glyph unicode="{" horiz-adv-x="414" d="M437 -101Q437 -121 424 -130T393 -139Q340 -139 300 -130T230 -98T183 -40T158 52Q154 80 153 107T150 162Q147 198 142 220T125 260T96 293T51 332Q78 355 96 371T125 404T142 443T150 502Q152 529 153 558T157 617T169 675T193 726Q209 749 232 764T283 787T338 799T393 803Q410 803 419 798T432 783T436 763T437 738Q437 716 421 708T383 696T340 688T308 668Q302 659 299 637T293 589T290 540T289 505Q289 473 286 451T275 409T252 372T215 332Q238 310 252 292T274 255T286 213T289 159Q289 148 289 125T292 76T298 28T308 -4Q318 -19 339 -24T382 -32T420 -44T437 -74V-101H437Z"  />
<glyph unicode="|" horiz-adv-x="220" d="M178 -84Q178 -139 126 -139H105Q74 -139 58 -129T41 -84V749Q41 803 96 803H126Q150 803 164 788T178 749V-84H178Z"  />
<glyph unicode="}" horiz-adv-x="414" d="M363 332Q336 309 318 293T289 260T272 221T264 162Q262 135 261 106T256 47T244 -11T221 -62Q205 -85 182 -100T131 -123T76 -135T21 -139Q4 -139 -5 -134T-18 -119T-22 -99T-23 -74Q-23 -52 -7 -44T31 -33T74 -24T106 -4Q112 5 115 27T121 75T125 124T126 159Q127 190 130 213T140 255T162 292T199 332Q176 354 162 372T141 409T130 450T126 505Q126 516 125 539T122 588T116 636T106 668Q96 683 75 687T32 696T-6 708T-23 738V765Q-23 785 -10 794T21 803Q74 803 114 794T184 762T232 703T257 612Q261 585 261 558T264 502Q266 466 271 444T288 404T318 371T363 332Z"  />
<glyph unicode="~" horiz-adv-x="368" d="M368 394Q368 385 365 376T358 359Q342 325 316 302T250 279Q232 279 216 284T184 294T154 305T127 310Q119 310 114 305T104 293T91 281T70 275H36Q20 275 10 282T0 307Q0 317 4 328T14 348Q31 380 57 403T121 426Q139 426 156 422T189 411T219 401T247 396Q252 396 255 401T262 411T274 422T296 427H331Q347 427 357 419T368 394Z"  />
<glyph unicode="&#xA0;" horiz-adv-x="245" />
<glyph unicode="&#xA1;" horiz-adv-x="319" d="M259 395Q259 382 249 365T223 331T190 304T160 293Q146 293 129 303T97 329T71 362T60 392Q60 405 70 422T95 456T127 483T158 494Q171 494 188 484T221 458T248 425T259 395ZM234 -158Q234 -186 220 -197T179 -209H135Q111 -209 97 -194T83 -156L91 187Q92 213 103 227T142 241H175Q205 241 215 229T227 187L234 -156V-158Z"  />
<glyph unicode="&#xA2;" horiz-adv-x="497" d="M446 140Q446 135 446 130T444 119Q441 112 433 108T416 101T396 97T380 95Q367 93 354 93T328 92V33Q328 9 319 7T290 4Q273 4 272 11T270 33V91Q202 93 160 107T95 151T63 227T54 337Q54 401 62 447T94 523T160 567T270 584V638Q270 660 278 662T305 665Q318 665 323 657T328 638V583Q341 582 354 582T380 579Q386 578 395 577T414 574T432 568T443 558Q445 554 445 549T446 539V535Q446 522 445 508T440 481T426 460T398 452Q381 452 363 454T328 459V216Q345 218 363 220T398 223Q418 223 431 210Q435 206 437 197T442 177T445 156T446 140ZM270 463H264Q244 463 234 460T219 451T213 433T210 404Q208 389 208 375T208 345Q208 321 209 297T212 248Q213 233 217 226T229 215T247 212T270 212V463Z"  />
<glyph unicode="&#xA3;" horiz-adv-x="637" d="M539 620Q539 610 538 600T534 580Q530 557 522 545T489 533Q476 533 463 536T436 542Q413 546 389 547T342 549Q320 549 308 546T289 534T280 511T278 476Q278 458 279 440T283 403H386Q421 403 432 388T443 340Q443 308 432 294T386 279H290Q288 199 260 126Q281 120 302 114T346 108Q367 108 387 112T428 124Q434 126 443 130T462 139T481 147T496 150Q513 150 521 143T533 125T536 101T536 76Q536 49 527 36T494 11Q465 -6 431 -13T362 -21Q337 -21 314 -17T269 -6T224 4T179 9Q156 9 135 1T90 -7Q77 -7 69 -1T55 14T48 35T46 57Q46 71 50 89T65 118Q73 126 93 131T124 139Q132 174 134 208T136 279Q113 279 100 283T81 296T73 319T71 354Q71 383 87 393T129 403Q127 426 125 449T122 496Q122 530 133 564T167 625Q182 643 202 654T243 671T288 679T334 681Q412 681 489 669Q512 665 525 656T539 620Z"  />
<glyph unicode="&#xA4;" horiz-adv-x="639" d="M503 77L433 147Q407 131 378 124T319 116Q289 116 260 123T205 147L135 77L63 153L131 221Q100 274 100 334Q100 395 131 447L63 516L135 592L205 522Q231 538 260 545T319 553Q349 553 378 546T433 522L503 592L575 516L507 447Q538 395 538 334Q538 274 507 221L575 153L503 77ZM434 335Q434 358 425 379T400 415T363 440T319 449Q295 449 275 440T238 416T213 380T204 335Q204 311 213 291T238 254T274 229T319 220Q343 220 363 229T400 254T425 290T434 335Z"  />
<glyph unicode="&#xA5;" horiz-adv-x="637" d="M398 226H463Q488 226 504 215T520 177V165Q520 135 506 125T463 114H398V54Q398 0 344 0H301Q272 0 257 11T241 54V114H175Q140 114 130 130T120 177Q120 201 136 213T175 226H241V251L42 592Q32 609 32 626Q32 648 46 658T81 668H135Q158 668 171 661T195 634L321 415L450 635Q459 651 470 658T495 667T522 669T554 668Q574 668 589 658T604 626Q604 609 594 592L398 259V226Z"  />
<glyph unicode="&#xA6;" horiz-adv-x="236" d="M60 380V699H176V380H60ZM60 -33V286H176V-33H60Z"  />
<glyph unicode="&#xA7;" horiz-adv-x="589" d="M540 -8Q540 -66 516 -106T454 -171T366 -208T267 -220Q216 -220 171 -212T79 -180Q73 -177 65 -173T56 -159Q56 -154 61 -143T72 -118T84 -94T94 -76Q97 -71 100 -65T112 -58Q118 -58 125 -61T137 -68Q168 -85 197 -95T263 -105Q283 -105 307 -102T353 -88T388 -62T402 -19Q402 -6 397 3T382 22Q370 33 348 44T301 66T251 85T210 101Q178 114 151 131T103 171T70 223T58 290Q58 350 96 396Q76 418 67 444T58 500Q58 551 81 587T140 645T221 677T310 687Q355 687 397 680T483 663Q490 661 502 658T514 645Q514 641 511 630T503 607T494 583T487 566Q484 558 480 550T465 542Q457 542 450 544T436 549Q406 559 375 565T311 572Q294 572 275 569T238 559T210 538T198 503Q198 479 223 463T287 433T369 402T451 360T514 297T540 202Q540 173 533 144T508 90Q525 70 532 44T540 -8ZM402 190Q402 221 381 243T329 282T266 310T210 330Q198 315 198 293Q198 278 207 266T229 243T258 225T286 212Q314 200 342 189T398 163Q402 175 402 190Z"  />
<glyph unicode="&#xA8;" horiz-adv-x="351" d="M351 605Q351 589 340 577T312 565H247Q230 565 219 577T208 605V672Q208 688 219 700T247 712H312Q329 712 340 700T351 672V605ZM142 605Q142 589 132 577T104 565H39Q22 565 11 577T0 605V672Q0 688 11 700T39 712H104Q121 712 131 700T142 672V605Z"  />
<glyph unicode="&#xA9;" horiz-adv-x="1000" d="M940 244Q940 19 828 -94T491 -207Q447 -207 404 -202T320 -183T242 -149T174 -94Q140 -59 118 -20T83 60T65 147T60 239Q60 286 65 331T83 417T118 498T174 572Q205 605 242 626T320 661T404 679T492 685Q711 685 825 575T940 244ZM794 235Q794 298 780 359T734 475Q719 502 691 519T631 546T564 559T502 563Q473 563 439 560T371 546T310 519T265 475Q250 450 239 421T221 361T211 299T207 239Q207 210 210 179T221 117T239 57T265 3Q281 -24 309 -41T372 -68T440 -81T504 -85Q532 -85 565 -82T631 -69T691 -42T734 3Q763 56 778 115T794 235ZM655 37Q655 15 640 10T607 3Q566 0 526 0Q464 0 423 13T356 53T321 122T310 225Q310 288 320 332T354 403T421 444T526 457Q566 457 607 454Q616 453 624 452T639 448T650 438T655 420V399Q655 376 648 366T616 356Q597 356 578 357T540 359Q507 359 486 356T453 343T437 312T433 257V225Q433 207 433 187T438 149T454 118T488 100Q501 98 514 98T540 98Q559 98 578 99T616 101Q633 101 641 96T652 82T655 62T655 37Z"  />
<glyph unicode="&#xAA;" horiz-adv-x="397" d="M350 400Q350 386 345 379T331 370T313 367T292 367Q281 367 269 369T250 383Q227 372 202 366T150 359Q102 359 72 382T41 456Q41 499 61 521T112 553T179 564T246 566Q246 582 242 595T218 608Q192 608 166 604T114 595Q106 593 101 593Q78 593 75 605T71 635Q71 661 98 667Q124 673 156 676T214 679Q240 679 270 674T321 648Q343 627 346 601T350 546V400ZM247 497Q240 497 234 497T221 498Q211 498 197 498T171 495T149 485T140 463Q140 454 143 442T159 430Q187 430 205 435T247 455V497Z"  />
<glyph unicode="&#xAB;" horiz-adv-x="565" d="M533 88Q533 77 524 70T501 60T475 55T454 54Q434 54 421 58T395 79Q389 87 372 109T338 157T307 204T293 233Q293 240 306 262T337 308T372 355T395 387Q408 404 421 408T454 412Q461 412 474 411T501 407T523 396T533 378Q533 367 526 357L446 233L526 109Q533 98 533 88ZM299 88Q299 77 290 70T267 60T241 55T221 54Q201 54 188 58T161 79Q155 87 138 109T104 157T74 204T60 233Q60 240 73 262T104 309T138 356T161 387Q174 404 187 408T221 412Q228 412 241 411T267 407T289 396T299 378Q299 367 292 357L212 233L292 109Q299 98 299 88Z"  />
<glyph unicode="&#xAC;" horiz-adv-x="523" d="M374 129V312H46V415H477V129H374Z"  />
<glyph unicode="&#xAD;" horiz-adv-x="476" d="M434 248Q434 222 417 216T377 210H96Q88 210 78 211T60 215T47 224T41 242V299Q41 308 47 314T61 323T79 328T96 329H377Q384 329 394 328T413 324T428 315T434 299V248H434Z"  />
<glyph unicode="&#xAE;" horiz-adv-x="1000" d="M940 244Q940 19 828 -94T491 -207Q447 -207 404 -202T320 -183T242 -149T174 -94Q140 -59 118 -21T83 60T65 146T60 239Q60 287 65 331T83 418T118 498T174 572Q205 605 242 626T320 661T404 679T492 685Q710 685 825 575T940 244ZM794 235Q794 298 780 359T734 475Q719 502 691 519T631 546T564 559T502 563Q473 563 439 560T371 546T310 519T265 475Q250 450 239 421T221 361T211 299T207 239Q207 210 210 179T221 117T239 57T265 3Q281 -24 309 -41T372 -68T440 -81T504 -85Q532 -85 565 -82T631 -69T691 -42T734 3Q763 56 778 115T794 235ZM700 46Q700 30 689 25T663 19H620Q603 19 591 23T567 41L453 172H450V59Q450 42 443 34T426 22T402 19T377 19Q356 19 343 27T330 59V425Q330 448 343 455T377 463H507Q545 463 576 460T636 430Q661 407 669 372T677 303Q677 258 658 225T594 178L687 78Q700 65 700 46ZM557 308Q557 331 556 343T549 360T531 366T498 367Q486 367 474 367T450 366V268H516Q544 268 550 274T557 308Z"  />
<glyph unicode="&#xAF;" horiz-adv-x="311" d="M311 626Q311 596 302 581T259 565H50Q23 565 12 578T0 617V632Q0 655 14 667T50 680H259Q288 680 299 667T311 626Z"  />
<glyph unicode="&#xB0;" horiz-adv-x="400" d="M338 575Q338 546 328 520T299 475T255 444T200 432Q171 432 146 443T102 474T73 520T62 575Q62 604 72 630T101 675T145 706T200 718Q229 718 254 707T298 676T327 630T338 575ZM250 575Q250 596 235 610T199 625Q178 625 165 610T152 575Q152 555 165 540T199 525Q219 525 234 539T250 575Z"  />
<glyph unicode="&#xB1;" horiz-adv-x="549" d="M331 274V111H218V274H42V379H218V542H331V379H507V274H331ZM42 -78V27H507V-78H42Z"  />
<glyph unicode="&#xB2;" horiz-adv-x="387" d="M319 349Q319 330 307 321T278 312H85Q71 312 63 316T51 327T46 344T45 366Q45 385 58 398T83 422L148 485Q156 492 166 502T186 525T202 549T210 573Q211 584 206 588T186 593Q172 593 160 592T134 589Q127 588 120 586T104 584Q80 584 75 599T66 633Q66 635 66 637T65 641Q65 658 77 665T103 675Q145 681 188 681Q213 681 236 676T277 660T306 629T317 581Q317 552 307 527T279 479T240 437T198 400Q218 401 238 401T278 402Q292 402 300 398T313 387T318 370T319 349Z"  />
<glyph unicode="&#xB3;" horiz-adv-x="387" d="M337 429Q337 363 299 335T199 307Q189 307 167 310T121 319T79 334T61 356Q61 365 64 373T70 390Q78 414 104 414Q110 414 118 412Q139 406 158 401T201 396Q221 396 226 402T232 428Q232 446 224 449T199 453Q185 454 172 454T146 454Q137 454 129 454T114 458T103 467T98 485V508Q98 523 105 529T124 538T147 541T170 540Q194 540 206 543T218 574Q218 591 209 593T186 595Q174 595 162 594T138 591Q133 590 128 589T117 588Q93 588 87 606T81 644Q81 659 95 670Q99 673 111 675T138 679T166 680T185 681Q212 681 237 677T280 661T310 630T322 578Q322 560 318 543T302 511Q323 496 330 475T337 429Z"  />
<glyph unicode="&#xB4;" horiz-adv-x="255" d="M255 708Q255 700 251 694T242 683Q234 674 218 657T184 621T150 588T124 570Q109 564 94 564H52Q45 564 36 564T19 568T6 576T0 592Q0 598 15 619T49 663T87 705T112 730Q121 736 137 737T165 738Q173 738 188 738T218 736T244 727T255 708Z"  />
<glyph unicode="&#xB5;" horiz-adv-x="573" d="M504 53Q504 0 449 0H404Q390 0 380 7T362 25Q331 7 303 -3T239 -13Q225 -13 214 -9V-156Q214 -179 206 -190T185 -205T156 -209T123 -209Q94 -209 79 -198T63 -155V425Q63 447 70 458T89 474T117 479T150 479Q181 479 197 469T214 425V117Q226 111 240 111Q274 111 300 125T353 159V425Q353 447 360 458T379 474T407 479T440 479Q471 479 487 469T504 425V53H504Z"  />
<glyph unicode="&#xB6;" horiz-adv-x="802" d="M752 -134Q752 -166 741 -181T694 -196H545V679H445V-196H295Q274 -196 263 -191T247 -175T240 -152T239 -121Q239 -103 246 -93T264 -78T289 -72T317 -71V282Q275 282 239 288T165 315Q139 330 120 353T87 405T67 463T60 523Q60 549 63 578T75 637T97 691T131 736Q155 758 183 769T242 786T304 791T367 791H694Q729 791 740 776T752 728Q752 705 747 693T733 674T708 667T673 666V-71Q693 -71 708 -72T732 -80T747 -98T752 -134Z"  />
<glyph unicode="&#xB7;" horiz-adv-x="319" d="M259 337Q259 324 249 307T223 273T191 246T161 235Q147 235 130 245T97 271T71 304T60 334Q60 347 70 364T96 398T129 425T159 436Q172 436 189 426T222 400T248 367T259 337Z"  />
<glyph unicode="&#xB8;" horiz-adv-x="212" d="M212 -30Q212 -38 207 -48Q193 -72 175 -94T139 -139Q127 -155 115 -162T83 -169H43Q23 -169 12 -163T0 -136Q0 -126 4 -119T15 -105Q35 -82 55 -61T96 -17Q107 -6 118 -3T144 0H181Q195 0 203 -8T212 -30Z"  />
<glyph unicode="&#xB9;" horiz-adv-x="387" d="M262 351Q262 333 252 323T223 312H204Q184 312 171 320T158 351V572Q154 570 148 569T137 567Q116 567 109 580T101 612Q101 627 108 636T129 650Q152 659 174 667T223 676Q240 676 251 666T262 639V351H262Z"  />
<glyph unicode="&#xBA;" horiz-adv-x="420" d="M379 516Q379 431 336 394T210 357Q129 357 85 394T41 516Q41 600 84 638T210 677Q292 677 335 639T379 516ZM273 516Q273 531 271 550T261 583Q253 596 239 597T210 598Q196 598 182 597T159 583Q151 570 150 550T148 516Q148 502 149 483T159 450Q167 437 181 436T210 435Q224 435 238 436T261 450Q269 464 271 482T273 516Z"  />
<glyph unicode="&#xBB;" horiz-adv-x="565" d="M505 233Q505 224 492 203T461 157T427 110T403 79Q390 62 377 58T344 54Q337 54 324 55T298 59T276 70T266 88Q266 98 273 109L353 233L273 357Q266 367 266 378Q266 389 275 396T298 406T324 411T344 412Q364 412 377 408T403 387Q409 378 426 356T460 309T491 262T505 233ZM272 233Q272 225 259 204T228 158T194 111T170 79Q157 62 144 58T111 54Q104 54 91 55T64 59T42 70T32 88Q32 98 39 109L119 233L39 357Q32 367 32 378Q32 389 41 396T64 406T90 411T111 412Q131 412 144 408T170 387Q176 378 193 356T227 309T258 262T272 233Z"  />
<glyph unicode="&#xBC;" horiz-adv-x="931" d="M704 653Q704 644 699 634L334 -18Q327 -29 316 -34T292 -40Q285 -40 282 -38L236 -10Q229 -6 227 1T225 16Q225 25 230 35L596 687Q608 709 636 709Q643 709 646 707L693 679Q700 675 702 668T704 653ZM262 351Q262 333 252 323T223 312H204Q184 312 171 320T158 351V572Q154 570 148 569T137 567Q116 567 109 580T101 612Q101 627 108 636T129 650Q152 659 174 667T223 676Q240 676 251 666T262 639V351ZM861 116Q861 90 848 85T813 79Q813 62 813 48T811 23T798 6T767 0Q746 0 737 6T724 22T720 47T721 79H625H596Q575 79 564 97T553 134Q553 152 563 163L713 348Q724 362 739 363T774 364Q791 364 802 354T813 327V159Q839 159 850 151T861 116ZM721 233L656 156Q673 157 688 157T721 157V233Z"  />
<glyph unicode="&#xBD;" horiz-adv-x="931" d="M684 653Q684 644 679 634L314 -18Q307 -29 296 -34T272 -40Q265 -40 262 -38L216 -10Q209 -6 207 1T205 16Q205 25 210 35L576 687Q588 709 616 709Q623 709 626 707L673 679Q680 675 682 668T684 653ZM262 351Q262 333 252 323T223 312H204Q184 312 171 320T158 351V572Q154 570 148 569T137 567Q116 567 109 580T101 612Q101 627 108 636T129 650Q152 659 174 667T223 676Q240 676 251 666T262 639V351ZM849 37Q849 18 837 9T808 0H615Q601 0 593 4T581 15T576 32T575 54Q575 73 588 86T613 110L678 173Q686 180 696 190T716 213T732 237T740 261Q741 272 736 276T716 281Q702 281 690 280T664 277Q657 276 650 274T634 272Q610 272 605 287T596 321Q596 323 596 325T595 329Q595 346 607 353T633 363Q675 369 718 369Q743 369 766 364T807 348T836 317T847 269Q847 240 837 215T809 167T770 125T728 88Q748 89 768 89T808 90Q822 90 830 86T843 75T848 58T849 37Z"  />
<glyph unicode="&#xBE;" horiz-adv-x="931" d="M714 653Q714 644 709 634L344 -18Q337 -29 326 -34T302 -40Q295 -40 292 -38L246 -10Q239 -6 237 1T235 16Q235 25 240 35L606 687Q618 709 646 709Q653 709 656 707L703 679Q710 675 712 668T714 653ZM337 429Q337 363 299 335T199 307Q189 307 167 310T121 319T79 334T61 356Q61 365 64 373T70 390Q78 414 104 414Q110 414 118 412Q139 406 158 401T201 396Q221 396 226 402T232 428Q232 446 224 449T199 453Q185 454 172 454T146 454Q137 454 129 454T114 458T103 467T98 485V508Q98 523 105 529T124 538T147 541T170 540Q194 540 206 543T218 574Q218 591 209 593T186 595Q174 595 162 594T138 591Q133 590 128 589T117 588Q93 588 87 606T81 644Q81 659 95 670Q99 673 111 675T138 679T166 680T185 681Q212 681 237 677T280 661T310 630T322 578Q322 560 318 543T302 511Q323 496 330 475T337 429ZM861 116Q861 90 848 85T813 79Q813 62 813 48T811 23T798 6T767 0Q746 0 737 6T724 22T720 47T721 79H625H596Q575 79 564 97T553 134Q553 152 563 163L713 348Q724 362 739 363T774 364Q791 364 802 354T813 327V159Q839 159 850 151T861 116ZM721 233L656 156Q673 157 688 157T721 157V233Z"  />
<glyph unicode="&#xBF;" horiz-adv-x="516" d="M397 395Q397 382 387 365T361 331T328 304T298 293Q284 293 267 303T235 329T210 362T199 392Q199 405 209 423T234 456T266 483T297 494Q310 494 327 484T360 458T386 426T397 395ZM456 -166Q456 -187 443 -196T412 -208Q335 -220 258 -220Q215 -220 178 -214T112 -191T68 -144T51 -63Q51 -31 64 -1T108 57Q131 79 157 99T206 142Q219 155 229 172T239 210Q239 225 247 231T268 240T294 242T318 241Q339 241 349 236T364 222T368 200T367 170Q367 145 355 125T325 86T286 52T247 19T217 -15T205 -52Q205 -79 220 -89T263 -99Q295 -99 326 -94T389 -84Q394 -83 400 -82T411 -81Q428 -81 437 -89T450 -111T455 -139T456 -166Z"  />
<glyph unicode="&#xC0;" horiz-adv-x="645" d="M631 40Q631 19 617 10T584 0H529Q506 0 493 10T471 41L440 123Q320 120 200 123L173 48Q164 23 152 12T111 0H65Q44 0 29 5T14 35Q14 41 17 51T23 68L229 621Q237 643 247 654T271 669T302 673T340 672Q369 672 384 661T410 622L627 59Q629 54 630 50T631 40ZM319 463L242 241H396L319 463ZM442 769Q442 751 427 746T397 741H348Q331 741 317 748T291 765T268 788T247 811Q242 817 232 826T212 846T195 867T187 885Q187 896 195 902T216 911T240 914T261 915Q275 915 296 915T330 907Q337 903 355 884T392 841T427 796T442 769Z"  />
<glyph unicode="&#xC1;" horiz-adv-x="645" d="M631 40Q631 19 617 10T584 0H529Q506 0 493 10T471 41L440 123Q320 120 200 123L173 48Q164 23 152 12T111 0H65Q44 0 29 5T14 35Q14 41 17 51T23 68L229 621Q237 643 247 654T271 669T302 673T340 672Q369 672 384 661T410 622L627 59Q629 54 630 50T631 40ZM319 463L242 241H396L319 463ZM476 885Q476 877 472 871T463 860Q455 851 439 834T405 798T371 765T345 747Q330 741 315 741H273Q266 741 257 741T240 745T227 753T221 769Q221 775 236 796T270 840T308 882T333 907Q342 913 358 914T386 915Q394 915 409 915T439 913T465 904T476 885Z"  />
<glyph unicode="&#xC2;" horiz-adv-x="645" d="M631 40Q631 19 617 10T584 0H529Q506 0 493 10T471 41L440 123Q320 120 200 123L173 48Q164 23 152 12T111 0H65Q44 0 29 5T14 35Q14 41 17 51T23 68L229 621Q237 643 247 654T271 669T302 673T340 672Q369 672 384 661T410 622L627 59Q629 54 630 50T631 40ZM319 463L242 241H396L319 463ZM487 779Q487 769 478 763T455 753T429 748T410 747Q395 747 386 750T369 760T356 776T343 797Q333 813 320 829Q315 822 307 811T291 787T274 766T258 752Q252 748 244 748T229 747Q223 747 210 748T185 752T163 762T153 779Q153 787 159 798T173 821T189 843T203 861Q207 867 215 878T232 900T249 921T264 936Q275 945 290 945T320 946Q334 946 349 946T376 936Q384 930 398 912T428 873T457 833T478 803Q482 798 484 792T487 779Z"  />
<glyph unicode="&#xC3;" horiz-adv-x="645" d="M631 40Q631 19 617 10T584 0H529Q506 0 493 10T471 41L440 123Q320 120 200 123L173 48Q164 23 152 12T111 0H65Q44 0 29 5T14 35Q14 41 17 51T23 68L229 621Q237 643 247 654T271 669T302 673T340 672Q369 672 384 661T410 622L627 59Q629 54 630 50T631 40ZM319 463L242 241H396L319 463ZM507 880Q507 871 504 862T496 845Q479 811 454 788T388 765Q369 765 352 770T318 780T289 791T265 796Q257 796 252 791T242 779T229 767T208 761H174Q158 761 148 768T138 793Q138 803 143 814T153 834Q170 865 195 888T259 912Q277 912 294 908T327 897T357 887T385 882Q391 882 393 887T400 897T412 908T434 913H470Q486 913 496 905T507 880Z"  />
<glyph unicode="&#xC4;" horiz-adv-x="645" d="M631 40Q631 19 617 10T584 0H529Q506 0 493 10T471 41L440 123Q320 120 200 123L173 48Q164 23 152 12T111 0H65Q44 0 29 5T14 35Q14 41 17 51T23 68L229 621Q237 643 247 654T271 669T302 673T340 672Q369 672 384 661T410 622L627 59Q629 54 630 50T631 40ZM319 463L242 241H396L319 463ZM498 806Q498 790 487 778T459 766H394Q377 766 366 778T355 806V873Q355 889 366 901T394 913H459Q476 913 487 901T498 873V806ZM289 806Q289 790 279 778T251 766H186Q169 766 158 778T147 806V873Q147 889 158 901T186 913H251Q268 913 278 901T289 873V806Z"  />
<glyph unicode="&#xC5;" horiz-adv-x="645" d="M631 40Q631 19 617 10T584 0H529Q506 0 493 10T471 41L440 123Q320 120 200 123L173 48Q164 23 152 12T111 0H65Q44 0 29 5T14 35Q14 41 17 51T23 68L229 621Q237 643 247 654T271 669T302 673T340 672Q369 672 384 661T410 622L627 59Q629 54 630 50T631 40ZM319 463L242 241H396L319 463ZM421 882Q421 861 414 843T393 810T361 788T322 780Q301 780 283 788T252 811T231 843T223 882Q223 903 230 921T251 954T283 976T322 984Q343 984 361 976T392 954T413 922T421 882ZM361 882Q361 898 350 910T322 922Q305 922 295 910T284 882Q284 866 294 855T322 843Q338 843 349 855T361 882Z"  />
<glyph unicode="&#xC6;" horiz-adv-x="938" d="M883 51Q883 25 869 13T829 0H519Q490 0 475 11T459 54V164H234L174 45Q164 25 154 16T132 3T105 -1T69 0Q49 0 32 10T14 43Q14 51 18 62T27 80L269 557Q281 580 291 600T316 635T349 659T397 668H829Q849 668 860 662T876 646T882 621T883 591Q883 563 871 549T829 534Q775 534 722 535T615 537V409Q663 410 710 411T806 412Q825 412 836 407T852 392T859 370T861 342Q861 314 848 300T806 285Q758 285 711 286T615 288V131Q669 132 722 133T829 134Q851 134 862 127T877 109T882 82T883 51ZM459 537H433Q425 537 423 535T416 525L296 287H459V537Z"  />
<glyph unicode="&#xC7;" horiz-adv-x="575" d="M534 37Q534 23 529 15T514 2T494 -5T471 -8Q451 -10 433 -10T394 -12Q394 -20 385 -35T363 -66T338 -98T320 -120Q308 -136 297 -143T265 -150H224Q204 -150 193 -144T182 -117Q182 -106 186 -99T198 -84Q215 -64 233 -46T269 -7Q198 4 156 34T92 108T62 208T55 326Q55 370 58 419T76 513T117 594T192 651Q230 666 272 670T356 675Q385 675 413 674T471 670Q483 669 494 667T514 661T528 648T534 625V593Q534 563 525 549T484 535Q457 535 430 537T376 540Q366 540 352 540T322 538T294 534T271 528Q247 518 235 493T219 438T215 377T216 325Q216 298 216 266T224 205T248 154T301 126Q319 122 338 122T376 122Q403 122 430 124T484 127Q506 127 517 120T531 100T535 71T534 37Z"  />
<glyph unicode="&#xC8;" horiz-adv-x="552" d="M497 51Q497 25 483 13T443 0H132Q103 0 88 11T72 54V617Q72 647 89 657T132 668H443Q463 668 474 662T490 646T496 621T497 591Q497 563 485 549T443 534Q389 534 336 535T229 537V409Q277 410 324 411T420 412Q439 412 450 407T466 392T473 370T475 342Q475 314 462 300T420 285Q372 285 325 286T229 288V131Q283 132 336 133T443 134Q465 134 476 127T491 109T496 82T497 51ZM385 769Q385 751 370 746T340 741H291Q274 741 260 748T234 765T211 788T190 811Q185 817 175 826T155 846T138 867T130 885Q130 896 138 902T159 911T183 914T204 915Q218 915 239 915T273 907Q280 903 298 884T335 841T370 796T385 769Z"  />
<glyph unicode="&#xC9;" horiz-adv-x="552" d="M497 51Q497 25 483 13T443 0H132Q103 0 88 11T72 54V617Q72 647 89 657T132 668H443Q463 668 474 662T490 646T496 621T497 591Q497 563 485 549T443 534Q389 534 336 535T229 537V409Q277 410 324 411T420 412Q439 412 450 407T466 392T473 370T475 342Q475 314 462 300T420 285Q372 285 325 286T229 288V131Q283 132 336 133T443 134Q465 134 476 127T491 109T496 82T497 51ZM449 885Q449 877 445 871T436 860Q428 851 412 834T378 798T344 765T318 747Q303 741 288 741H246Q239 741 230 741T213 745T200 753T194 769Q194 775 209 796T243 840T281 882T306 907Q315 913 331 914T359 915Q367 915 382 915T412 913T438 904T449 885Z"  />
<glyph unicode="&#xCA;" horiz-adv-x="552" d="M497 51Q497 25 483 13T443 0H132Q103 0 88 11T72 54V617Q72 647 89 657T132 668H443Q463 668 474 662T490 646T496 621T497 591Q497 563 485 549T443 534Q389 534 336 535T229 537V409Q277 410 324 411T420 412Q439 412 450 407T466 392T473 370T475 342Q475 314 462 300T420 285Q372 285 325 286T229 288V131Q283 132 336 133T443 134Q465 134 476 127T491 109T496 82T497 51ZM453 779Q453 769 444 763T421 753T395 748T376 747Q361 747 352 750T335 760T322 776T309 797Q299 813 286 829Q281 822 273 811T257 787T240 766T224 752Q218 748 210 748T195 747Q189 747 176 748T151 752T129 762T119 779Q119 787 125 798T139 821T155 843T169 861Q173 867 181 878T198 900T215 921T230 936Q241 945 256 945T286 946Q300 946 315 946T342 936Q350 930 364 912T394 873T423 833T444 803Q448 798 450 792T453 779Z"  />
<glyph unicode="&#xCB;" horiz-adv-x="552" d="M497 51Q497 25 483 13T443 0H132Q103 0 88 11T72 54V617Q72 647 89 657T132 668H443Q463 668 474 662T490 646T496 621T497 591Q497 563 485 549T443 534Q389 534 336 535T229 537V409Q277 410 324 411T420 412Q439 412 450 407T466 392T473 370T475 342Q475 314 462 300T420 285Q372 285 325 286T229 288V131Q283 132 336 133T443 134Q465 134 476 127T491 109T496 82T497 51ZM463 806Q463 790 452 778T424 766H359Q342 766 331 778T320 806V873Q320 889 331 901T359 913H424Q441 913 452 901T463 873V806ZM254 806Q254 790 244 778T216 766H151Q134 766 123 778T112 806V873Q112 889 123 901T151 913H216Q233 913 243 901T254 873V806Z"  />
<glyph unicode="&#xCC;" horiz-adv-x="308" d="M232 54Q232 0 178 0H135Q106 0 91 11T75 54V617Q75 647 92 657T135 668H178Q204 668 218 656T232 617V54H232ZM257 769Q257 751 242 746T212 741H163Q146 741 132 748T106 765T83 788T62 811Q57 817 47 826T27 846T10 867T2 885Q2 896 10 902T31 911T55 914T76 915Q90 915 111 915T145 907Q152 903 170 884T207 841T242 796T257 769Z"  />
<glyph unicode="&#xCD;" horiz-adv-x="308" d="M232 54Q232 0 178 0H135Q106 0 91 11T75 54V617Q75 647 92 657T135 668H178Q204 668 218 656T232 617V54H232ZM305 885Q305 877 301 871T292 860Q284 851 268 834T234 798T200 765T174 747Q159 741 144 741H102Q95 741 86 741T69 745T56 753T50 769Q50 775 65 796T99 840T137 882T162 907Q171 913 187 914T215 915Q223 915 238 915T268 913T294 904T305 885Z"  />
<glyph unicode="&#xCE;" horiz-adv-x="308" d="M232 54Q232 0 178 0H135Q106 0 91 11T75 54V617Q75 647 92 657T135 668H178Q204 668 218 656T232 617V54H232ZM322 779Q322 769 313 763T290 753T264 748T245 747Q230 747 221 750T204 760T191 776T178 797Q168 813 155 829Q150 822 142 811T126 787T109 766T93 752Q87 748 79 748T64 747Q58 747 45 748T20 752T-2 762T-12 779Q-12 787 -6 798T8 821T24 843T38 861Q42 867 50 878T67 900T84 921T99 936Q110 945 125 945T155 946Q169 946 184 946T211 936Q219 930 233 912T263 873T292 833T313 803Q317 798 319 792T322 779Z"  />
<glyph unicode="&#xCF;" horiz-adv-x="308" d="M232 54Q232 0 178 0H135Q106 0 91 11T75 54V617Q75 647 92 657T135 668H178Q204 668 218 656T232 617V54H232ZM330 806Q330 790 319 778T291 766H226Q209 766 198 778T187 806V873Q187 889 198 901T226 913H291Q308 913 319 901T330 873V806ZM121 806Q121 790 111 778T83 766H18Q1 766 -10 778T-21 806V873Q-21 889 -10 901T18 913H83Q100 913 110 901T121 873V806Z"  />
<glyph unicode="&#xD0;" horiz-adv-x="683" d="M628 327Q628 243 615 182T567 80T475 20T326 0H151Q122 0 107 11T91 54V288Q67 288 54 292T35 306T28 330T27 366Q27 395 47 405T91 415V617Q91 647 108 657T151 668H326Q366 668 409 664T490 646Q538 628 565 593T607 513T624 420T628 327ZM467 357V375Q467 425 460 456T435 504T386 527T306 533Q292 533 277 533T248 532V415H324Q349 415 365 404T381 366V349Q381 317 370 303T324 288H248V136Q262 134 277 134T306 135Q363 135 395 144T443 176T463 235T467 325V357Z"  />
<glyph unicode="&#xD1;" horiz-adv-x="709" d="M637 54Q637 33 630 22T611 6T584 1T553 0Q531 0 517 4T488 25Q463 54 441 86T395 149Q352 209 310 268T226 387V54Q226 31 218 20T196 5T165 0T132 0Q103 0 88 11T72 54V617Q72 638 80 648T100 663T127 668T158 668Q179 668 191 664T218 643Q243 613 265 581T310 518L483 278V617Q483 640 492 651T517 665T549 669T583 668Q609 668 623 656T637 617V54H637ZM539 877Q539 868 536 859T528 842Q511 808 486 785T420 762Q401 762 384 767T350 777T321 788T297 793Q289 793 284 788T274 776T261 764T240 758H206Q190 758 180 765T170 790Q170 800 175 811T185 831Q202 862 227 885T291 909Q309 909 326 905T359 894T389 884T417 879Q423 879 425 884T432 894T444 905T466 910H502Q518 910 528 902T539 877Z"  />
<glyph unicode="&#xD2;" horiz-adv-x="705" d="M650 333Q650 257 635 193T586 81T494 6T352 -21Q268 -21 211 6T120 80T70 192T55 333Q55 409 69 474T118 586T210 660T352 687Q437 687 494 660T585 586T635 474T650 333ZM488 333Q488 349 488 371T485 416T478 460T467 496Q450 530 419 540T352 551Q317 551 286 541T238 496Q231 481 227 460T221 417T218 372T217 333Q217 316 217 295T220 251T227 207T238 171Q255 137 286 126T352 115Q387 115 418 126T467 171Q474 186 478 207T484 250T487 294T488 333ZM444 769Q444 751 429 746T399 741H350Q333 741 319 748T293 765T270 788T249 811Q244 817 234 826T214 846T197 867T189 885Q189 896 197 902T218 911T242 914T263 915Q277 915 298 915T332 907Q339 903 357 884T394 841T429 796T444 769Z"  />
<glyph unicode="&#xD3;" horiz-adv-x="705" d="M650 333Q650 257 635 193T586 81T494 6T352 -21Q268 -21 211 6T120 80T70 192T55 333Q55 409 69 474T118 586T210 660T352 687Q437 687 494 660T585 586T635 474T650 333ZM488 333Q488 349 488 371T485 416T478 460T467 496Q450 530 419 540T352 551Q317 551 286 541T238 496Q231 481 227 460T221 417T218 372T217 333Q217 316 217 295T220 251T227 207T238 171Q255 137 286 126T352 115Q387 115 418 126T467 171Q474 186 478 207T484 250T487 294T488 333ZM511 885Q511 877 507 871T498 860Q490 851 474 834T440 798T406 765T380 747Q365 741 350 741H308Q301 741 292 741T275 745T262 753T256 769Q256 775 271 796T305 840T343 882T368 907Q377 913 393 914T421 915Q429 915 444 915T474 913T500 904T511 885Z"  />
<glyph unicode="&#xD4;" horiz-adv-x="705" d="M650 333Q650 257 635 193T586 81T494 6T352 -21Q268 -21 211 6T120 80T70 192T55 333Q55 409 69 474T118 586T210 660T352 687Q437 687 494 660T585 586T635 474T650 333ZM488 333Q488 349 488 371T485 416T478 460T467 496Q450 530 419 540T352 551Q317 551 286 541T238 496Q231 481 227 460T221 417T218 372T217 333Q217 316 217 295T220 251T227 207T238 171Q255 137 286 126T352 115Q387 115 418 126T467 171Q474 186 478 207T484 250T487 294T488 333ZM519 779Q519 769 510 763T487 753T461 748T442 747Q427 747 418 750T401 760T388 776T375 797Q365 813 352 829Q347 822 339 811T323 787T306 766T290 752Q284 748 276 748T261 747Q255 747 242 748T217 752T195 762T185 779Q185 787 191 798T205 821T221 843T235 861Q239 867 247 878T264 900T281 921T296 936Q307 945 322 945T352 946Q366 946 381 946T408 936Q416 930 430 912T460 873T489 833T510 803Q514 798 516 792T519 779Z"  />
<glyph unicode="&#xD5;" horiz-adv-x="705" d="M650 333Q650 257 635 193T586 81T494 6T352 -21Q268 -21 211 6T120 80T70 192T55 333Q55 409 69 474T118 586T210 660T352 687Q437 687 494 660T585 586T635 474T650 333ZM488 333Q488 349 488 371T485 416T478 460T467 496Q450 530 419 540T352 551Q317 551 286 541T238 496Q231 481 227 460T221 417T218 372T217 333Q217 316 217 295T220 251T227 207T238 171Q255 137 286 126T352 115Q387 115 418 126T467 171Q474 186 478 207T484 250T487 294T488 333ZM537 877Q537 868 534 859T526 842Q509 808 484 785T418 762Q399 762 382 767T348 777T319 788T295 793Q287 793 282 788T272 776T259 764T238 758H204Q188 758 178 765T168 790Q168 800 173 811T183 831Q200 862 225 885T289 909Q307 909 324 905T357 894T387 884T415 879Q421 879 423 884T430 894T442 905T464 910H500Q516 910 526 902T537 877Z"  />
<glyph unicode="&#xD6;" horiz-adv-x="705" d="M650 333Q650 257 635 193T586 81T494 6T352 -21Q268 -21 211 6T120 80T70 192T55 333Q55 409 69 474T118 586T210 660T352 687Q437 687 494 660T585 586T635 474T650 333ZM488 333Q488 349 488 371T485 416T478 460T467 496Q450 530 419 540T352 551Q317 551 286 541T238 496Q231 481 227 460T221 417T218 372T217 333Q217 316 217 295T220 251T227 207T238 171Q255 137 286 126T352 115Q387 115 418 126T467 171Q474 186 478 207T484 250T487 294T488 333ZM528 806Q528 790 517 778T489 766H424Q407 766 396 778T385 806V873Q385 889 396 901T424 913H489Q506 913 517 901T528 873V806ZM319 806Q319 790 309 778T281 766H216Q199 766 188 778T177 806V873Q177 889 188 901T216 913H281Q298 913 308 901T319 873V806Z"  />
<glyph unicode="&#xD7;" horiz-adv-x="552" d="M415 19L277 153L138 19L51 105L189 239L51 374L138 460L277 326L415 460L502 374L364 239L502 105L415 19Z"  />
<glyph unicode="&#xD8;" horiz-adv-x="705" d="M650 333Q650 257 635 193T586 81T494 6T352 -21Q291 -21 245 -7T165 33L111 -29Q103 -38 93 -44T71 -51Q63 -51 53 -45T33 -30T17 -11T10 8Q10 19 16 29T30 47L94 120Q73 165 64 218T55 333Q55 409 69 474T118 586T210 660T352 687Q415 687 461 673T542 631L599 695Q607 703 616 710T637 717Q647 717 657 711T676 696T689 677T695 656Q695 636 680 619L612 541Q632 498 641 446T650 333ZM217 333Q217 319 217 301T219 262L447 522Q429 539 404 545T352 551Q317 551 286 541T238 496Q231 481 227 460T221 417T218 372T217 333ZM488 333Q488 346 488 363T486 398L260 141Q278 126 302 121T352 115Q387 115 418 126T467 171Q474 186 478 207T484 250T487 294T488 333Z"  />
<glyph unicode="&#xD9;" horiz-adv-x="697" d="M632 393Q632 338 631 283T620 174Q609 116 586 79T528 21T448 -7T348 -15Q275 -15 226 -1T145 39T97 101T73 183T65 282T64 393V617Q64 640 74 651T99 665T132 669T166 668Q192 668 206 656T221 617V332Q221 314 221 292T222 246T228 201T241 162Q248 147 260 139T287 127T317 122T348 121Q363 121 379 121T409 126T435 138T455 162Q463 179 467 201T473 246T475 291T475 332V617Q475 640 485 651T511 665T545 669T579 668Q632 668 632 617V393H632ZM444 769Q444 751 429 746T399 741H350Q333 741 319 748T293 765T270 788T249 811Q244 817 234 826T214 846T197 867T189 885Q189 896 197 902T218 911T242 914T263 915Q277 915 298 915T332 907Q339 903 357 884T394 841T429 796T444 769Z"  />
<glyph unicode="&#xDA;" horiz-adv-x="697" d="M632 393Q632 338 631 283T620 174Q609 116 586 79T528 21T448 -7T348 -15Q275 -15 226 -1T145 39T97 101T73 183T65 282T64 393V617Q64 640 74 651T99 665T132 669T166 668Q192 668 206 656T221 617V332Q221 314 221 292T222 246T228 201T241 162Q248 147 260 139T287 127T317 122T348 121Q363 121 379 121T409 126T435 138T455 162Q463 179 467 201T473 246T475 291T475 332V617Q475 640 485 651T511 665T545 669T579 668Q632 668 632 617V393H632ZM530 885Q530 877 526 871T517 860Q509 851 493 834T459 798T425 765T399 747Q384 741 369 741H327Q320 741 311 741T294 745T281 753T275 769Q275 775 290 796T324 840T362 882T387 907Q396 913 412 914T440 915Q448 915 463 915T493 913T519 904T530 885Z"  />
<glyph unicode="&#xDB;" horiz-adv-x="697" d="M632 393Q632 338 631 283T620 174Q609 116 586 79T528 21T448 -7T348 -15Q275 -15 226 -1T145 39T97 101T73 183T65 282T64 393V617Q64 640 74 651T99 665T132 669T166 668Q192 668 206 656T221 617V332Q221 314 221 292T222 246T228 201T241 162Q248 147 260 139T287 127T317 122T348 121Q363 121 379 121T409 126T435 138T455 162Q463 179 467 201T473 246T475 291T475 332V617Q475 640 485 651T511 665T545 669T579 668Q632 668 632 617V393H632ZM514 779Q514 769 505 763T482 753T456 748T437 747Q422 747 413 750T396 760T383 776T370 797Q360 813 347 829Q342 822 334 811T318 787T301 766T285 752Q279 748 271 748T256 747Q250 747 237 748T212 752T190 762T180 779Q180 787 186 798T200 821T216 843T230 861Q234 867 242 878T259 900T276 921T291 936Q302 945 317 945T347 946Q361 946 376 946T403 936Q411 930 425 912T455 873T484 833T505 803Q509 798 511 792T514 779Z"  />
<glyph unicode="&#xDC;" horiz-adv-x="697" d="M632 393Q632 338 631 283T620 174Q609 116 586 79T528 21T448 -7T348 -15Q275 -15 226 -1T145 39T97 101T73 183T65 282T64 393V617Q64 640 74 651T99 665T132 669T166 668Q192 668 206 656T221 617V332Q221 314 221 292T222 246T228 201T241 162Q248 147 260 139T287 127T317 122T348 121Q363 121 379 121T409 126T435 138T455 162Q463 179 467 201T473 246T475 291T475 332V617Q475 640 485 651T511 665T545 669T579 668Q632 668 632 617V393H632ZM523 806Q523 790 512 778T484 766H419Q402 766 391 778T380 806V873Q380 889 391 901T419 913H484Q501 913 512 901T523 873V806ZM314 806Q314 790 304 778T276 766H211Q194 766 183 778T172 806V873Q172 889 183 901T211 913H276Q293 913 303 901T314 873V806Z"  />
<glyph unicode="&#xDD;" horiz-adv-x="637" d="M399 54Q399 31 391 20T368 4T337 -1T302 0Q273 0 258 11T242 54V251L43 592Q38 600 35 608T32 626Q32 646 43 655T71 667T106 669T136 668Q159 668 172 661T196 634L322 415L451 635Q460 651 471 658T496 667T523 669T555 668Q575 668 590 659T605 626Q605 609 595 592L399 259V54ZM494 885Q494 877 490 871T481 860Q473 851 457 834T423 798T389 765T363 747Q348 741 333 741H291Q284 741 275 741T258 745T245 753T239 769Q239 775 254 796T288 840T326 882T351 907Q360 913 376 914T404 915Q412 915 427 915T457 913T483 904T494 885Z"  />
<glyph unicode="&#xDE;" horiz-adv-x="548" d="M534 338Q534 308 531 279T517 223T489 174T441 138Q417 127 388 122T327 116T266 115T210 116V54Q210 0 156 0H113Q84 0 69 11T53 54V617Q53 640 63 651T88 665T122 669T156 668Q179 668 190 660T205 639T210 609T210 575H299Q326 575 350 575T396 571T438 556T479 526Q497 508 507 486T524 438T532 388T534 338ZM378 345Q378 352 378 365T375 393T369 420T357 436Q352 439 342 440T321 442T300 443T283 443Q265 443 247 443T210 441V249H312Q323 249 341 250T368 262Q372 268 374 279T377 302T378 326T378 345Z"  />
<glyph unicode="&#xDF;" horiz-adv-x="635" d="M575 247Q575 192 563 145T525 64T457 9T354 -11Q343 -11 328 -10T299 -6T275 6T262 28Q259 47 259 68Q259 91 268 106T303 121Q318 121 333 119T363 117Q371 117 378 118T393 124Q404 131 410 148T419 184T422 222T423 253Q423 293 411 310T381 333T341 336T302 336T271 351T259 396Q259 428 272 442T317 456Q331 456 346 456T375 461T396 474T405 503Q405 522 398 532T379 547T352 553T322 554Q313 554 299 554T271 551T245 544T227 529Q222 522 221 515T220 499V54Q220 31 213 20T193 5T165 0T132 0Q101 0 85 10T68 54V472Q68 535 86 575T139 637T219 667T321 675Q368 675 410 672T484 654T535 606T554 516Q554 488 549 458T522 408Q540 394 550 375T566 335T573 291T575 247Z"  />
<glyph unicode="&#xE0;" horiz-adv-x="545" d="M481 53Q481 32 475 21T457 6T430 1T399 0Q382 0 365 3T340 25Q307 7 271 -3T196 -13Q120 -13 81 26T41 141Q41 193 59 225T107 276T178 300T262 307Q298 307 334 304Q334 316 334 330T331 356T319 376T293 384Q256 384 219 378T145 364Q140 363 136 363T126 362Q110 362 102 367T89 381T85 401T84 424Q84 445 92 458T122 476Q138 480 159 483T204 489T249 492T288 494Q307 494 328 492T370 485T408 471T441 446Q456 429 464 410T476 370T480 327T481 284V53ZM335 206Q325 206 316 207T297 208Q280 208 260 208T223 202T194 186T182 151Q182 145 183 135T187 116T195 100T210 93Q230 93 245 95T275 102T304 114T335 133V206ZM388 605Q388 587 373 582T343 577H294Q277 577 263 584T237 601T214 624T193 647Q188 653 178 662T158 682T141 703T133 721Q133 732 141 738T162 747T186 750T207 751Q221 751 242 751T276 743Q283 739 301 720T338 677T373 632T388 605Z"  />
<glyph unicode="&#xE1;" horiz-adv-x="545" d="M481 53Q481 32 475 21T457 6T430 1T399 0Q382 0 365 3T340 25Q307 7 271 -3T196 -13Q120 -13 81 26T41 141Q41 193 59 225T107 276T178 300T262 307Q298 307 334 304Q334 316 334 330T331 356T319 376T293 384Q256 384 219 378T145 364Q140 363 136 363T126 362Q110 362 102 367T89 381T85 401T84 424Q84 445 92 458T122 476Q138 480 159 483T204 489T249 492T288 494Q307 494 328 492T370 485T408 471T441 446Q456 429 464 410T476 370T480 327T481 284V53ZM335 206Q325 206 316 207T297 208Q280 208 260 208T223 202T194 186T182 151Q182 145 183 135T187 116T195 100T210 93Q230 93 245 95T275 102T304 114T335 133V206ZM448 721Q448 713 444 707T435 696Q427 687 411 670T377 634T343 601T317 583Q302 577 287 577H245Q238 577 229 577T212 581T199 589T193 605Q193 611 208 632T242 676T280 718T305 743Q314 749 330 750T358 751Q366 751 381 751T411 749T437 740T448 721Z"  />
<glyph unicode="&#xE2;" horiz-adv-x="545" d="M481 53Q481 32 475 21T457 6T430 1T399 0Q382 0 365 3T340 25Q307 7 271 -3T196 -13Q120 -13 81 26T41 141Q41 193 59 225T107 276T178 300T262 307Q298 307 334 304Q334 316 334 330T331 356T319 376T293 384Q256 384 219 378T145 364Q140 363 136 363T126 362Q110 362 102 367T89 381T85 401T84 424Q84 445 92 458T122 476Q138 480 159 483T204 489T249 492T288 494Q307 494 328 492T370 485T408 471T441 446Q456 429 464 410T476 370T480 327T481 284V53ZM335 206Q325 206 316 207T297 208Q280 208 260 208T223 202T194 186T182 151Q182 145 183 135T187 116T195 100T210 93Q230 93 245 95T275 102T304 114T335 133V206ZM439 600Q439 590 430 584T407 574T381 569T362 568Q347 568 338 571T321 581T308 597T295 618Q285 634 272 650Q267 643 259 632T243 608T226 587T210 573Q204 569 196 569T181 568Q175 568 162 569T137 573T115 583T105 600Q105 608 111 619T125 642T141 664T155 682Q159 688 167 699T184 721T201 742T216 757Q227 766 242 766T272 767Q286 767 301 767T328 757Q336 751 350 733T380 694T409 654T430 624Q434 619 436 613T439 600Z"  />
<glyph unicode="&#xE3;" horiz-adv-x="545" d="M481 53Q481 32 475 21T457 6T430 1T399 0Q382 0 365 3T340 25Q307 7 271 -3T196 -13Q120 -13 81 26T41 141Q41 193 59 225T107 276T178 300T262 307Q298 307 334 304Q334 316 334 330T331 356T319 376T293 384Q256 384 219 378T145 364Q140 363 136 363T126 362Q110 362 102 367T89 381T85 401T84 424Q84 445 92 458T122 476Q138 480 159 483T204 489T249 492T288 494Q307 494 328 492T370 485T408 471T441 446Q456 429 464 410T476 370T480 327T481 284V53ZM335 206Q325 206 316 207T297 208Q280 208 260 208T223 202T194 186T182 151Q182 145 183 135T187 116T195 100T210 93Q230 93 245 95T275 102T304 114T335 133V206ZM459 689Q459 680 456 671T448 654Q431 620 406 597T340 574Q321 574 304 579T270 589T241 600T217 605Q209 605 204 600T194 588T181 576T160 570H126Q110 570 100 577T90 602Q90 612 95 623T105 643Q122 674 147 697T211 721Q229 721 246 717T279 706T309 696T337 691Q343 691 345 696T352 706T364 717T386 722H422Q438 722 448 714T459 689Z"  />
<glyph unicode="&#xE4;" horiz-adv-x="545" d="M481 53Q481 32 475 21T457 6T430 1T399 0Q382 0 365 3T340 25Q307 7 271 -3T196 -13Q120 -13 81 26T41 141Q41 193 59 225T107 276T178 300T262 307Q298 307 334 304Q334 316 334 330T331 356T319 376T293 384Q256 384 219 378T145 364Q140 363 136 363T126 362Q110 362 102 367T89 381T85 401T84 424Q84 445 92 458T122 476Q138 480 159 483T204 489T249 492T288 494Q307 494 328 492T370 485T408 471T441 446Q456 429 464 410T476 370T480 327T481 284V53ZM335 206Q325 206 316 207T297 208Q280 208 260 208T223 202T194 186T182 151Q182 145 183 135T187 116T195 100T210 93Q230 93 245 95T275 102T304 114T335 133V206ZM469 617Q469 601 458 589T430 577H365Q348 577 337 589T326 617V684Q326 700 337 712T365 724H430Q447 724 458 712T469 684V617ZM260 617Q260 601 250 589T222 577H157Q140 577 129 589T118 617V684Q118 700 129 712T157 724H222Q239 724 249 712T260 684V617Z"  />
<glyph unicode="&#xE5;" horiz-adv-x="545" d="M481 53Q481 32 475 21T457 6T430 1T399 0Q382 0 365 3T340 25Q307 7 271 -3T196 -13Q120 -13 81 26T41 141Q41 193 59 225T107 276T178 300T262 307Q298 307 334 304Q334 316 334 330T331 356T319 376T293 384Q256 384 219 378T145 364Q140 363 136 363T126 362Q110 362 102 367T89 381T85 401T84 424Q84 445 92 458T122 476Q138 480 159 483T204 489T249 492T288 494Q307 494 328 492T370 485T408 471T441 446Q456 429 464 410T476 370T480 327T481 284V53ZM335 206Q325 206 316 207T297 208Q280 208 260 208T223 202T194 186T182 151Q182 145 183 135T187 116T195 100T210 93Q230 93 245 95T275 102T304 114T335 133V206ZM363 668Q363 647 356 629T335 596T303 574T264 566Q243 566 225 574T194 597T173 629T165 668Q165 689 172 707T193 740T225 762T264 770Q285 770 303 762T334 740T355 708T363 668ZM303 668Q303 684 292 696T264 708Q247 708 237 696T226 668Q226 652 236 641T264 629Q280 629 291 641T303 668Z"  />
<glyph unicode="&#xE6;" horiz-adv-x="826" d="M771 263Q771 244 770 231T764 210T748 198T717 194H482V182Q481 134 499 117T566 100Q599 100 632 105T697 117Q703 119 710 120T723 122Q738 122 746 116T758 99T763 77T764 54Q764 29 754 17T718 0Q681 -7 642 -10T565 -13Q541 -13 516 -11T466 -2T420 16T381 48Q337 22 293 5T196 -13Q120 -13 81 26T41 141Q41 193 59 225T107 276T178 300T262 307Q298 307 334 304Q334 316 334 330T331 356T319 376T293 384Q256 384 219 378T145 364Q140 363 136 363T126 362Q110 362 102 367T89 381T85 401T84 424Q84 445 92 458T122 476Q138 480 159 483T204 489T249 492T288 494Q321 494 358 487T419 454Q448 482 485 488T560 494Q622 494 662 480T727 436T761 364T771 263ZM628 317Q628 355 614 368T561 381Q537 381 522 376T499 359T487 332T483 293H628V317ZM346 136Q341 152 338 170T335 206Q325 206 316 207T297 208Q280 208 260 208T223 202T194 186T182 151Q182 145 183 135T187 116T195 100T210 93Q251 93 281 104T346 136Z"  />
<glyph unicode="&#xE7;" horiz-adv-x="497" d="M446 37Q446 32 446 26T444 14Q441 7 433 3T416 -4T396 -7T380 -9Q372 -10 365 -10T350 -11Q350 -20 341 -35T319 -68T295 -100T276 -124Q264 -140 253 -147T221 -154H180Q160 -154 149 -148T138 -121Q138 -110 141 -104T152 -89L223 -10Q166 -4 132 17T81 70T59 146T54 240Q54 311 64 359T101 438T174 481T294 494Q316 494 337 493T380 489Q386 488 395 487T414 484T432 478T443 468Q445 463 445 458T446 448V444Q446 431 445 416T440 388T426 367T398 358Q387 358 377 359T355 362Q332 365 310 367T264 370Q244 370 234 367T219 357T213 338T210 309Q208 293 208 278T208 247Q208 222 209 198T212 148Q213 134 216 127T226 116T241 112T264 111Q287 111 310 113T356 119Q367 120 377 121T398 123Q417 123 431 109Q435 105 437 96T442 75T445 53T446 37Z"  />
<glyph unicode="&#xE8;" horiz-adv-x="545" d="M490 263Q490 244 489 231T483 210T467 198T436 194H201V178Q201 132 220 116T285 100Q318 100 351 105T416 117Q422 119 429 120T442 122Q456 122 464 116T477 99T482 77T483 54Q483 28 473 17T437 0Q402 -7 361 -10T284 -13Q216 -13 172 2T101 47T65 125T54 237Q54 300 63 348T96 429T165 477T279 494Q341 494 381 480T446 436T480 364T490 263ZM347 317Q347 355 333 368T280 381Q256 381 241 376T218 359T206 332T202 293H347V317ZM374 605Q374 587 359 582T329 577H280Q263 577 249 584T223 601T200 624T179 647Q174 653 164 662T144 682T127 703T119 721Q119 732 127 738T148 747T172 750T193 751Q207 751 228 751T262 743Q269 739 287 720T324 677T359 632T374 605Z"  />
<glyph unicode="&#xE9;" horiz-adv-x="545" d="M490 263Q490 244 489 231T483 210T467 198T436 194H201V178Q201 132 220 116T285 100Q318 100 351 105T416 117Q422 119 429 120T442 122Q456 122 464 116T477 99T482 77T483 54Q483 28 473 17T437 0Q402 -7 361 -10T284 -13Q216 -13 172 2T101 47T65 125T54 237Q54 300 63 348T96 429T165 477T279 494Q341 494 381 480T446 436T480 364T490 263ZM347 317Q347 355 333 368T280 381Q256 381 241 376T218 359T206 332T202 293H347V317ZM444 721Q444 713 440 707T431 696Q423 687 407 670T373 634T339 601T313 583Q298 577 283 577H241Q234 577 225 577T208 581T195 589T189 605Q189 611 204 632T238 676T276 718T301 743Q310 749 326 750T354 751Q362 751 377 751T407 749T433 740T444 721Z"  />
<glyph unicode="&#xEA;" horiz-adv-x="545" d="M490 263Q490 244 489 231T483 210T467 198T436 194H201V178Q201 132 220 116T285 100Q318 100 351 105T416 117Q422 119 429 120T442 122Q456 122 464 116T477 99T482 77T483 54Q483 28 473 17T437 0Q402 -7 361 -10T284 -13Q216 -13 172 2T101 47T65 125T54 237Q54 300 63 348T96 429T165 477T279 494Q341 494 381 480T446 436T480 364T490 263ZM347 317Q347 355 333 368T280 381Q256 381 241 376T218 359T206 332T202 293H347V317ZM446 600Q446 590 437 584T414 574T388 569T369 568Q354 568 345 571T328 581T315 597T302 618Q292 634 279 650Q274 643 266 632T250 608T233 587T217 573Q211 569 203 569T188 568Q182 568 169 569T144 573T122 583T112 600Q112 608 118 619T132 642T148 664T162 682Q166 688 174 699T191 721T208 742T223 757Q234 766 249 766T279 767Q293 767 308 767T335 757Q343 751 357 733T387 694T416 654T437 624Q441 619 443 613T446 600Z"  />
<glyph unicode="&#xEB;" horiz-adv-x="545" d="M490 263Q490 244 489 231T483 210T467 198T436 194H201V178Q201 132 220 116T285 100Q318 100 351 105T416 117Q422 119 429 120T442 122Q456 122 464 116T477 99T482 77T483 54Q483 28 473 17T437 0Q402 -7 361 -10T284 -13Q216 -13 172 2T101 47T65 125T54 237Q54 300 63 348T96 429T165 477T279 494Q341 494 381 480T446 436T480 364T490 263ZM347 317Q347 355 333 368T280 381Q256 381 241 376T218 359T206 332T202 293H347V317ZM457 617Q457 601 446 589T418 577H353Q336 577 325 589T314 617V684Q314 700 325 712T353 724H418Q435 724 446 712T457 684V617ZM248 617Q248 601 238 589T210 577H145Q128 577 117 589T106 617V684Q106 700 117 712T145 724H210Q227 724 237 712T248 684V617Z"  />
<glyph unicode="&#xEC;" horiz-adv-x="290" d="M222 56Q222 30 210 15T170 0H132Q100 0 84 10T68 56V424Q68 479 123 479H170Q194 479 208 463T222 424V56H222ZM234 605Q234 587 219 582T189 577H140Q123 577 109 584T83 601T60 624T39 647Q34 653 24 662T4 682T-13 703T-21 721Q-21 732 -13 738T8 747T32 750T53 751Q67 751 88 751T122 743Q129 739 147 720T184 677T219 632T234 605Z"  />
<glyph unicode="&#xED;" horiz-adv-x="290" d="M222 56Q222 30 210 15T170 0H132Q100 0 84 10T68 56V424Q68 479 123 479H170Q194 479 208 463T222 424V56H222ZM303 721Q303 713 299 707T290 696Q282 687 266 670T232 634T198 601T172 583Q157 577 142 577H100Q93 577 84 577T67 581T54 589T48 605Q48 611 63 632T97 676T135 718T160 743Q169 749 185 750T213 751Q221 751 236 751T266 749T292 740T303 721Z"  />
<glyph unicode="&#xEE;" horiz-adv-x="290" d="M222 56Q222 30 210 15T170 0H132Q100 0 84 10T68 56V424Q68 479 123 479H170Q194 479 208 463T222 424V56H222ZM313 600Q313 590 304 584T281 574T255 569T236 568Q221 568 212 571T195 581T182 597T169 618Q159 634 146 650Q141 643 133 632T117 608T100 587T84 573Q78 569 70 569T55 568Q49 568 36 569T11 573T-11 583T-21 600Q-21 608 -15 619T-1 642T15 664T29 682Q33 688 41 699T58 721T75 742T90 757Q101 766 116 766T146 767Q160 767 175 767T202 757Q210 751 224 733T254 694T283 654T304 624Q308 619 310 613T313 600Z"  />
<glyph unicode="&#xEF;" horiz-adv-x="290" d="M222 56Q222 30 210 15T170 0H132Q100 0 84 10T68 56V424Q68 479 123 479H170Q194 479 208 463T222 424V56H222ZM321 617Q321 601 310 589T282 577H217Q200 577 189 589T178 617V684Q178 700 189 712T217 724H282Q299 724 310 712T321 684V617ZM112 617Q112 601 102 589T74 577H9Q-8 577 -19 589T-30 617V684Q-30 700 -19 712T9 724H74Q91 724 101 712T112 684V617Z"  />
<glyph unicode="&#xF0;" horiz-adv-x="592" d="M537 226Q537 106 476 47T295 -13Q54 -13 54 226Q54 341 110 404T285 467Q306 467 329 463T372 450Q365 474 350 496T314 533Q308 527 300 518T282 501T264 488T245 482Q236 482 226 487T208 500T193 517T187 536Q187 547 192 554T206 567Q176 567 162 569T141 579T135 605T136 651Q136 656 136 660T139 668Q143 673 152 676T171 680T191 681T206 681Q229 681 252 679T299 670Q309 681 321 694T348 707Q357 707 368 702T389 690T405 673T412 653Q412 645 409 641T401 630Q444 604 470 555T512 448T532 331T537 226ZM387 226Q387 249 384 274T369 320Q358 338 343 342T309 346H276Q259 346 245 342T221 320Q210 300 207 274T204 226Q204 204 207 177T222 130Q232 115 249 112T282 108H307Q321 108 339 110T366 126Q380 146 383 174T387 226Z"  />
<glyph unicode="&#xF1;" horiz-adv-x="573" d="M509 54Q509 31 502 20T483 5T455 0T422 0Q391 0 375 10T358 54V301Q358 309 358 321T356 344T349 363T331 371Q299 371 271 357T219 323V54Q219 31 212 20T193 5T165 0T132 0Q101 0 85 10T68 54V426Q68 479 123 479H168Q195 479 210 457Q273 494 343 494Q378 494 408 486T461 460T496 415T509 350V54H509ZM469 689Q469 680 466 671T458 654Q441 620 416 597T350 574Q331 574 314 579T280 589T251 600T227 605Q219 605 214 600T204 588T191 576T170 570H136Q120 570 110 577T100 602Q100 612 105 623T115 643Q132 674 157 697T221 721Q239 721 256 717T289 706T319 696T347 691Q353 691 355 696T362 706T374 717T396 722H432Q448 722 458 714T469 689Z"  />
<glyph unicode="&#xF2;" horiz-adv-x="592" d="M537 240Q537 118 480 53T296 -13Q170 -13 112 52T54 240Q54 362 112 428T296 494Q422 494 479 428T537 240ZM385 240Q385 264 383 294T368 345Q357 365 337 367T296 370Q275 370 255 368T223 345Q212 323 209 294T206 240Q206 229 206 215T208 187T213 159T223 135Q229 125 237 120T255 113T275 111T296 111Q306 111 316 111T336 113T354 120T368 135Q374 145 377 158T382 186T384 215T385 240ZM375 605Q375 587 360 582T330 577H281Q264 577 250 584T224 601T201 624T180 647Q175 653 165 662T145 682T128 703T120 721Q120 732 128 738T149 747T173 750T194 751Q208 751 229 751T263 743Q270 739 288 720T325 677T360 632T375 605Z"  />
<glyph unicode="&#xF3;" horiz-adv-x="592" d="M537 240Q537 118 480 53T296 -13Q170 -13 112 52T54 240Q54 362 112 428T296 494Q422 494 479 428T537 240ZM385 240Q385 264 383 294T368 345Q357 365 337 367T296 370Q275 370 255 368T223 345Q212 323 209 294T206 240Q206 229 206 215T208 187T213 159T223 135Q229 125 237 120T255 113T275 111T296 111Q306 111 316 111T336 113T354 120T368 135Q374 145 377 158T382 186T384 215T385 240ZM457 721Q457 713 453 707T444 696Q436 687 420 670T386 634T352 601T326 583Q311 577 296 577H254Q247 577 238 577T221 581T208 589T202 605Q202 611 217 632T251 676T289 718T314 743Q323 749 339 750T367 751Q375 751 390 751T420 749T446 740T457 721Z"  />
<glyph unicode="&#xF4;" horiz-adv-x="592" d="M537 240Q537 118 480 53T296 -13Q170 -13 112 52T54 240Q54 362 112 428T296 494Q422 494 479 428T537 240ZM385 240Q385 264 383 294T368 345Q357 365 337 367T296 370Q275 370 255 368T223 345Q212 323 209 294T206 240Q206 229 206 215T208 187T213 159T223 135Q229 125 237 120T255 113T275 111T296 111Q306 111 316 111T336 113T354 120T368 135Q374 145 377 158T382 186T384 215T385 240ZM460 600Q460 590 451 584T428 574T402 569T383 568Q368 568 359 571T342 581T329 597T316 618Q306 634 293 650Q288 643 280 632T264 608T247 587T231 573Q225 569 217 569T202 568Q196 568 183 569T158 573T136 583T126 600Q126 608 132 619T146 642T162 664T176 682Q180 688 188 699T205 721T222 742T237 757Q248 766 263 766T293 767Q307 767 322 767T349 757Q357 751 371 733T401 694T430 654T451 624Q455 619 457 613T460 600Z"  />
<glyph unicode="&#xF5;" horiz-adv-x="592" d="M537 240Q537 118 480 53T296 -13Q170 -13 112 52T54 240Q54 362 112 428T296 494Q422 494 479 428T537 240ZM385 240Q385 264 383 294T368 345Q357 365 337 367T296 370Q275 370 255 368T223 345Q212 323 209 294T206 240Q206 229 206 215T208 187T213 159T223 135Q229 125 237 120T255 113T275 111T296 111Q306 111 316 111T336 113T354 120T368 135Q374 145 377 158T382 186T384 215T385 240ZM481 689Q481 680 478 671T470 654Q453 620 428 597T362 574Q343 574 326 579T292 589T263 600T239 605Q231 605 226 600T216 588T203 576T182 570H148Q132 570 122 577T112 602Q112 612 117 623T127 643Q144 674 169 697T233 721Q251 721 268 717T301 706T331 696T359 691Q365 691 367 696T374 706T386 717T408 722H444Q460 722 470 714T481 689Z"  />
<glyph unicode="&#xF6;" horiz-adv-x="592" d="M537 240Q537 118 480 53T296 -13Q170 -13 112 52T54 240Q54 362 112 428T296 494Q422 494 479 428T537 240ZM385 240Q385 264 383 294T368 345Q357 365 337 367T296 370Q275 370 255 368T223 345Q212 323 209 294T206 240Q206 229 206 215T208 187T213 159T223 135Q229 125 237 120T255 113T275 111T296 111Q306 111 316 111T336 113T354 120T368 135Q374 145 377 158T382 186T384 215T385 240ZM474 617Q474 601 463 589T435 577H370Q353 577 342 589T331 617V684Q331 700 342 712T370 724H435Q452 724 463 712T474 684V617ZM265 617Q265 601 255 589T227 577H162Q145 577 134 589T123 617V684Q123 700 134 712T162 724H227Q244 724 254 712T265 684V617Z"  />
<glyph unicode="&#xF7;" horiz-adv-x="549" d="M339 433Q339 403 318 381T266 358Q234 358 215 380T195 433Q195 464 214 486T266 508Q296 508 317 486T339 433ZM47 186V293H502V186H47ZM339 46Q339 16 318 -6T266 -29Q234 -29 215 -7T195 46Q195 77 214 99T266 121Q296 121 317 99T339 46Z"  />
<glyph unicode="&#xF8;" horiz-adv-x="592" d="M537 240Q537 118 480 53T296 -13Q255 -13 222 -6T162 14Q157 8 149 -2T132 -21T114 -38T98 -45Q92 -45 84 -40T67 -26T53 -9T47 6Q47 11 52 19T66 37T82 56T96 71Q74 103 64 145T54 240Q54 362 112 428T296 494Q376 494 431 465L435 471Q439 476 446 485T462 503T479 519T495 526Q501 526 509 521T525 508T538 492T544 476Q544 468 540 460T529 442T515 426T503 412L497 405Q537 343 537 240ZM347 364Q336 369 323 369T296 370Q275 370 255 368T223 345Q212 323 209 294T206 240Q206 231 206 221T207 200L347 364ZM385 240Q385 248 385 256T384 273L249 115Q260 111 272 111T296 111Q306 111 316 111T336 113T354 120T368 135Q374 145 377 158T382 186T384 215T385 240Z"  />
<glyph unicode="&#xF9;" horiz-adv-x="573" d="M504 53Q504 0 449 0H404Q390 0 380 7T362 25Q331 7 298 -3T229 -13Q194 -13 164 -5T111 22T76 67T63 132V425Q63 447 70 458T89 474T117 479T150 479Q181 479 197 469T214 425V181Q214 174 214 162T216 139T223 120T240 111Q274 111 300 125T353 159V425Q353 447 360 458T379 474T407 479T440 479Q471 479 487 469T504 425V53H504ZM387 605Q387 587 372 582T342 577H293Q276 577 262 584T236 601T213 624T192 647Q187 653 177 662T157 682T140 703T132 721Q132 732 140 738T161 747T185 750T206 751Q220 751 241 751T275 743Q282 739 300 720T337 677T372 632T387 605Z"  />
<glyph unicode="&#xFA;" horiz-adv-x="573" d="M504 53Q504 0 449 0H404Q390 0 380 7T362 25Q331 7 298 -3T229 -13Q194 -13 164 -5T111 22T76 67T63 132V425Q63 447 70 458T89 474T117 479T150 479Q181 479 197 469T214 425V181Q214 174 214 162T216 139T223 120T240 111Q274 111 300 125T353 159V425Q353 447 360 458T379 474T407 479T440 479Q471 479 487 469T504 425V53H504ZM453 721Q453 713 449 707T440 696Q432 687 416 670T382 634T348 601T322 583Q307 577 292 577H250Q243 577 234 577T217 581T204 589T198 605Q198 611 213 632T247 676T285 718T310 743Q319 749 335 750T363 751Q371 751 386 751T416 749T442 740T453 721Z"  />
<glyph unicode="&#xFB;" horiz-adv-x="573" d="M504 53Q504 0 449 0H404Q390 0 380 7T362 25Q331 7 298 -3T229 -13Q194 -13 164 -5T111 22T76 67T63 132V425Q63 447 70 458T89 474T117 479T150 479Q181 479 197 469T214 425V181Q214 174 214 162T216 139T223 120T240 111Q274 111 300 125T353 159V425Q353 447 360 458T379 474T407 479T440 479Q471 479 487 469T504 425V53H504ZM451 600Q451 590 442 584T419 574T393 569T374 568Q359 568 350 571T333 581T320 597T307 618Q297 634 284 650Q279 643 271 632T255 608T238 587T222 573Q216 569 208 569T193 568Q187 568 174 569T149 573T127 583T117 600Q117 608 123 619T137 642T153 664T167 682Q171 688 179 699T196 721T213 742T228 757Q239 766 254 766T284 767Q298 767 313 767T340 757Q348 751 362 733T392 694T421 654T442 624Q446 619 448 613T451 600Z"  />
<glyph unicode="&#xFC;" horiz-adv-x="573" d="M504 53Q504 0 449 0H404Q390 0 380 7T362 25Q331 7 298 -3T229 -13Q194 -13 164 -5T111 22T76 67T63 132V425Q63 447 70 458T89 474T117 479T150 479Q181 479 197 469T214 425V181Q214 174 214 162T216 139T223 120T240 111Q274 111 300 125T353 159V425Q353 447 360 458T379 474T407 479T440 479Q471 479 487 469T504 425V53H504ZM465 617Q465 601 454 589T426 577H361Q344 577 333 589T322 617V684Q322 700 333 712T361 724H426Q443 724 454 712T465 684V617ZM256 617Q256 601 246 589T218 577H153Q136 577 125 589T114 617V684Q114 700 125 712T153 724H218Q235 724 245 712T256 684V617Z"  />
<glyph unicode="&#xFD;" horiz-adv-x="559" d="M504 439Q504 431 500 421L279 -169Q271 -192 257 -199T219 -206H169Q150 -206 137 -198T123 -169Q123 -161 125 -155T131 -141L205 25L41 421Q37 429 37 441Q37 458 52 468T83 479H128Q153 479 170 475T195 444L275 195L349 433Q355 454 366 464T392 477T423 480T459 479Q477 479 490 469T504 439ZM422 721Q422 713 418 707T409 696Q401 687 385 670T351 634T317 601T291 583Q276 577 261 577H219Q212 577 203 577T186 581T173 589T167 605Q167 611 182 632T216 676T254 718T279 743Q288 749 304 750T332 751Q340 751 355 751T385 749T411 740T422 721Z"  />
<glyph unicode="&#xFE;" horiz-adv-x="585" d="M531 248Q531 205 527 166T501 89Q486 61 464 42T415 10T359 -7T299 -13Q279 -13 259 -12T219 -6V-152Q219 -175 212 -187T194 -204T166 -209T132 -209Q100 -209 84 -198T68 -152V633Q68 658 77 669T100 685T132 689T168 688Q193 688 206 672T219 633V456Q251 473 286 483T357 494Q414 494 448 473T500 418T525 339T531 248ZM379 246Q379 270 377 297T369 347Q363 370 341 370Q328 370 312 365T278 353T246 338T219 323V123Q239 118 259 115T301 111Q312 111 321 112T342 117Q355 123 362 139T374 176T378 215T379 246Z"  />
<glyph unicode="&#xFF;" horiz-adv-x="559" d="M504 439Q504 431 500 421L279 -169Q271 -192 257 -199T219 -206H169Q150 -206 137 -198T123 -169Q123 -161 125 -155T131 -141L205 25L41 421Q37 429 37 441Q37 458 52 468T83 479H128Q153 479 170 475T195 444L275 195L349 433Q355 454 366 464T392 477T423 480T459 479Q477 479 490 469T504 439ZM458 617Q458 601 447 589T419 577H354Q337 577 326 589T315 617V684Q315 700 326 712T354 724H419Q436 724 447 712T458 684V617ZM249 617Q249 601 239 589T211 577H146Q129 577 118 589T107 617V684Q107 700 118 712T146 724H211Q228 724 238 712T249 684V617Z"  />
<glyph unicode="&#x131;" horiz-adv-x="290" d="M222 56Q222 30 210 15T170 0H132Q100 0 84 10T68 56V424Q68 479 123 479H170Q194 479 208 463T222 424V56H222Z"  />
<glyph unicode="&#x152;" horiz-adv-x="901" d="M846 51Q846 25 832 13T792 0H356Q267 0 209 19T116 79T69 180T55 327Q55 371 58 419T76 512T117 592T193 646Q231 660 273 664T356 668H792Q813 668 824 662T840 646T845 621T846 591Q846 563 834 549T792 534Q738 534 685 535T578 537V409Q626 410 674 411T770 412Q789 412 800 407T816 392T822 370T824 342Q824 314 812 300T770 285Q722 285 674 286T578 288V131Q632 132 685 133T792 134Q814 134 825 127T840 109T845 82T846 51ZM421 532Q410 532 399 532T376 533Q322 533 290 526T242 499T221 447T216 363V325Q216 272 219 236T239 177T287 145T376 135Q387 135 398 135T421 136V532Z"  />
<glyph unicode="&#x153;" horiz-adv-x="876" d="M821 263Q821 244 820 231T814 210T798 198T767 194H534Q533 188 533 183T532 171Q532 129 555 115T616 100Q649 100 682 105T747 117Q753 119 760 120T773 122Q787 122 795 116T808 99T813 77T814 54Q814 28 804 17T768 0Q733 -7 692 -10T615 -13Q594 -13 571 -12T526 -4T484 13T452 43Q423 10 381 -1T296 -13Q170 -13 112 52T54 240Q54 362 111 428T296 494Q314 494 337 492T382 485T422 468T452 439Q467 458 485 469T523 485T566 492T610 494Q674 494 715 481T779 439T812 367T821 263ZM678 317Q678 355 664 368T611 381Q587 381 572 376T549 359T537 332T533 293H678V317ZM385 240Q385 263 383 293T369 345Q358 365 338 367T296 370Q276 370 255 368T223 345Q212 324 210 294T207 240Q207 229 207 215T209 187T214 159T223 135Q229 125 237 120T255 113T275 111T296 111Q306 111 316 111T337 113T355 120T369 135Q375 145 378 158T382 186T384 215T385 240Z"  />
<glyph unicode="&#x160;" horiz-adv-x="559" d="M504 210Q504 195 504 176T501 138T495 101T484 70Q469 43 444 27T388 3T326 -7T266 -9Q229 -9 192 -8T117 -2Q105 -1 94 1T75 7T61 20T55 43V76Q55 106 64 120T105 134Q121 134 136 133T167 130Q196 127 224 127T281 126Q310 126 324 128T344 138T350 162T350 205Q350 225 346 234T322 251Q290 265 259 276T195 302Q154 319 129 333T89 368T69 417T63 491Q63 555 79 592T125 647T198 670T298 675Q330 675 363 674T428 670Q440 669 451 668T471 661T485 648T491 625V593Q491 563 482 549T441 535Q414 535 387 537T333 540Q315 540 297 540T260 541Q232 541 225 531T217 494V482Q217 460 221 452T245 435Q265 426 286 418T328 402Q354 391 379 381T428 357Q453 343 468 329T491 298T501 259T504 210ZM448 914Q448 907 446 901T439 890Q432 880 418 861T389 820T359 781T337 757Q326 748 311 748T281 747Q267 747 252 747T225 757Q217 763 203 780T173 819T144 860T123 890Q119 895 117 901T114 914Q114 924 123 930T145 940T171 945T190 946Q206 946 215 943T232 933T244 917T258 896Q268 880 281 864Q286 870 294 882T311 906T328 928T342 941Q349 945 356 945T371 946Q377 946 390 945T416 941T438 931T448 914Z"  />
<glyph unicode="&#x161;" horiz-adv-x="523" d="M458 146Q458 93 445 62T405 14T342 -8T258 -13Q222 -13 186 -13T113 -7Q99 -5 91 -2T80 9T76 25T75 49V66Q75 88 82 105T115 122Q129 122 144 120T173 115Q198 113 222 112T272 110Q289 110 300 113T311 136Q311 142 311 148T307 160Q303 166 277 172T216 188T149 209T99 237Q79 256 72 283T64 336Q64 395 84 427T137 474T213 491T303 494Q322 494 340 494T378 492Q409 490 424 479T439 434Q439 420 438 407T433 385T419 369T391 363Q377 363 364 364T338 367Q318 369 298 370T258 371Q248 371 240 371T225 370T215 361T211 343Q211 335 214 331Q217 327 227 323T248 315T271 308T287 304Q324 293 355 285T409 261T445 219T458 146ZM424 733Q424 726 422 720T415 709Q408 699 394 680T365 639T335 600T313 576Q302 567 287 567T257 566Q243 566 228 566T201 576Q193 582 179 599T149 638T120 679T99 709Q95 714 93 720T90 733Q90 743 99 749T121 759T147 764T166 765Q182 765 191 762T208 752T220 736T234 715Q244 699 257 683Q262 689 270 701T287 725T304 747T318 760Q325 764 332 764T347 765Q353 765 366 764T392 760T414 750T424 733Z"  />
<glyph unicode="&#x178;" horiz-adv-x="637" d="M399 54Q399 31 391 20T368 4T337 -1T302 0Q273 0 258 11T242 54V251L43 592Q38 600 35 608T32 626Q32 646 43 655T71 667T106 669T136 668Q159 668 172 661T196 634L322 415L451 635Q460 651 471 658T496 667T523 669T555 668Q575 668 590 659T605 626Q605 609 595 592L399 259V54ZM494 808Q494 792 483 780T455 768H390Q373 768 362 780T351 808V875Q351 891 362 903T390 915H455Q472 915 483 903T494 875V808ZM285 808Q285 792 275 780T247 768H182Q165 768 154 780T143 808V875Q143 891 154 903T182 915H247Q264 915 274 903T285 875V808Z"  />
<glyph unicode="&#x17D;" horiz-adv-x="580" d="M541 51Q541 25 527 13T487 0H84Q63 0 48 13T32 48Q32 62 37 75T51 100L327 537Q217 534 109 534Q87 534 76 541T60 559T55 586T54 617Q54 644 68 656T109 668H504Q523 668 535 659T548 629Q548 610 537 594L241 126Q303 129 364 131T487 134Q509 134 520 127T535 109T540 82T541 51ZM469 914Q469 907 467 901T460 890Q453 880 439 861T410 820T380 781T358 757Q347 748 332 748T302 747Q288 747 273 747T246 757Q238 763 224 780T194 819T165 860T144 890Q140 895 138 901T135 914Q135 924 144 930T166 940T192 945T211 946Q227 946 236 943T253 933T265 917T279 896Q289 880 302 864Q307 870 315 882T332 906T349 928T363 941Q370 945 377 945T392 946Q398 946 411 945T437 941T459 931T469 914Z"  />
<glyph unicode="&#x17E;" horiz-adv-x="515" d="M465 51Q465 25 451 13T411 0H101Q81 0 66 11T51 45V62Q51 76 56 87T70 110L263 359Q227 357 191 355T119 352Q99 352 88 358T72 374T66 398T65 427Q65 453 79 466T119 479H413Q431 479 440 473T453 458T457 435T458 409Q458 387 444 370L249 121Q290 123 330 125T411 127Q431 127 442 121T458 105T464 80T465 51ZM426 733Q426 726 424 720T417 709Q410 699 396 680T367 639T337 600T315 576Q304 567 289 567T259 566Q245 566 230 566T203 576Q195 582 181 599T151 638T122 679T101 709Q97 714 95 720T92 733Q92 743 101 749T123 759T149 764T168 765Q184 765 193 762T210 752T222 736T236 715Q246 699 259 683Q264 689 272 701T289 725T306 747T320 760Q327 764 334 764T349 765Q355 765 368 764T394 760T416 750T426 733Z"  />
<glyph unicode="&#x192;" horiz-adv-x="530" d="M516 596Q516 570 510 554T475 537Q459 537 442 541T407 545Q390 545 380 538T365 518T358 492T353 465Q368 465 385 465T416 462T439 448T449 416V403Q449 371 437 356T391 341H328L276 63Q268 18 258 -21T229 -90T176 -137T88 -155Q73 -155 60 -154T37 -147T20 -132T14 -103V-75Q14 -44 31 -37T74 -29Q89 -29 97 -21T109 0T116 27T120 52L175 341Q152 341 139 345T120 358T112 381T110 416Q110 436 118 446T140 460T169 465T199 465Q209 511 220 550T252 617T307 661T397 677Q414 677 430 675T462 671Q485 668 500 659T516 622V596H516Z"  />
<glyph unicode="&#x2C6;" horiz-adv-x="334" d="M334 580Q334 570 325 564T302 554T276 549T257 548Q242 548 233 551T216 561T203 577T190 598Q180 614 167 630Q162 623 154 612T138 588T121 567T105 553Q99 549 91 549T76 548Q70 548 57 549T32 553T10 563T0 580Q0 588 6 599T20 622T36 644T50 662Q54 668 62 679T79 701T96 722T111 737Q122 746 137 746T167 747Q181 747 196 747T223 737Q231 731 245 713T275 674T304 634T325 604Q329 599 331 593T334 580Z"  />
<glyph unicode="&#x2C7;" horiz-adv-x="334" d="M334 715Q334 708 332 702T325 691Q318 681 304 662T275 621T245 582T223 558Q212 549 197 549T167 548Q153 548 138 548T111 558Q103 564 89 581T59 620T30 661T9 691Q5 696 3 702T0 715Q0 725 9 731T31 741T57 746T76 747Q92 747 101 744T118 734T130 718T144 697Q154 681 167 665Q172 671 180 683T197 707T214 729T228 742Q235 746 242 746T257 747Q263 747 276 746T302 742T324 732T334 715Z"  />
<glyph unicode="&#x2DA;" horiz-adv-x="198" d="M198 654Q198 633 191 615T170 582T138 560T99 552Q78 552 60 560T29 583T8 615T0 654Q0 675 7 693T28 726T60 748T99 756Q120 756 138 748T169 726T190 694T198 654ZM138 654Q138 670 127 682T99 694Q82 694 72 682T61 654Q61 638 71 627T99 615Q115 615 126 627T138 654Z"  />
<glyph unicode="&#x2DC;" horiz-adv-x="369" d="M369 678Q369 669 366 660T358 643Q341 609 316 586T250 563Q231 563 214 568T180 578T151 589T127 594Q119 594 114 589T104 577T91 565T70 559H36Q20 559 10 566T0 591Q0 601 5 612T15 632Q32 663 57 686T121 710Q139 710 156 706T189 695T219 685T247 680Q253 680 255 685T262 695T274 706T296 711H332Q348 711 358 703T369 678Z"  />
<glyph unicode="&#x2013;" horiz-adv-x="552" d="M543 233Q543 203 534 188T491 172H60Q33 172 21 184T9 224V253Q9 276 23 288T60 301H491Q516 301 529 290T543 253V233H543Z"  />
<glyph unicode="&#x2014;" horiz-adv-x="1037" d="M1028 233Q1028 203 1019 188T976 172H60Q33 172 21 184T9 224V253Q9 276 23 288T60 301H976Q1001 301 1014 290T1028 253V233H1028Z"  />
<glyph unicode="&#x2018;" horiz-adv-x="285" d="M243 541Q243 531 234 522T212 507T186 497T164 493Q132 493 114 521Q108 530 95 549T67 590T43 631T32 659Q32 679 49 687T84 696H122Q145 696 156 688T179 660L231 575Q235 568 239 559T243 541Z"  />
<glyph unicode="&#x2019;" horiz-adv-x="285" d="M252 659Q252 647 246 638Q229 608 209 579T170 521Q160 507 149 500T120 493Q111 493 98 496T72 506T50 522T41 541Q41 549 45 558T53 575L105 660Q116 679 127 687T162 696H200Q217 696 234 688T252 659Z"  />
<glyph unicode="&#x201A;" horiz-adv-x="286" d="M253 47Q253 39 242 20T217 -21T190 -62T170 -91Q161 -105 150 -112T121 -119Q112 -119 99 -116T73 -106T51 -90T41 -71Q41 -63 45 -54T54 -37L105 48Q116 67 127 75T162 84H200Q208 84 217 82T235 76T248 64T253 47Z"  />
<glyph unicode="&#x201C;" horiz-adv-x="520" d="M478 541Q478 531 469 522T447 507T421 497T399 493Q367 493 349 521Q343 530 329 549T302 590T278 631T267 659Q267 679 284 687T319 696H357Q380 696 391 688T414 660L465 575Q469 568 473 559T478 541ZM243 541Q243 531 234 522T212 507T186 497T164 493Q132 493 114 521Q108 530 95 549T67 590T43 631T32 659Q32 679 49 687T84 696H122Q145 696 156 688T179 660L231 575Q235 568 239 559T243 541Z"  />
<glyph unicode="&#x201D;" horiz-adv-x="520" d="M487 659Q487 653 476 634T451 592T423 549T404 521Q395 507 384 500T355 493Q346 493 333 496T307 506T285 522T276 541Q276 549 279 558T287 575L339 660Q350 679 362 687T397 696H435Q452 696 469 688T487 659ZM252 659Q252 647 246 638Q229 608 209 579T170 521Q160 507 149 500T120 493Q111 493 98 496T72 506T50 522T41 541Q41 549 45 558T53 575L105 660Q116 679 127 687T162 696H200Q217 696 234 688T252 659Z"  />
<glyph unicode="&#x201E;" horiz-adv-x="529" d="M496 47Q496 36 489 26Q472 -4 453 -33T414 -91Q404 -105 393 -112T364 -119Q355 -119 342 -116T316 -106T294 -90T285 -71Q285 -63 289 -54T297 -37L349 48Q360 67 371 75T406 84H444Q461 84 478 76T496 47ZM253 47Q253 39 242 20T217 -21T190 -62T170 -91Q161 -105 150 -112T121 -119Q112 -119 99 -116T73 -106T51 -90T41 -71Q41 -63 45 -54T54 -37L105 48Q116 67 127 75T162 84H200Q208 84 217 82T235 76T248 64T253 47Z"  />
<glyph unicode="&#x2020;" horiz-adv-x="568" d="M513 434Q513 402 502 388T456 373H360V54Q360 31 353 20T334 5T306 0T273 0Q242 0 226 10T209 54V373H111Q91 373 80 378T63 393T56 416T55 447Q55 472 71 483T111 495H209V616Q209 640 218 651T241 665T274 669T309 668Q333 668 346 654T360 616V495H456Q491 495 502 481T513 434Z"  />
<glyph unicode="&#x2021;" horiz-adv-x="568" d="M513 233Q513 201 502 187T456 173H360V54Q360 31 353 20T334 5T306 0T273 0Q242 0 226 10T209 54V173H111Q91 173 80 178T63 193T56 216T55 246Q55 270 71 282T111 295H209V373H111Q91 373 80 378T63 393T56 416T55 447Q55 472 71 483T111 495H209V616Q209 640 218 651T241 665T274 669T309 668Q333 668 346 654T360 616V495H456Q491 495 502 481T513 434Q513 402 502 388T456 373H360V295H456Q491 295 502 280T513 233Z"  />
<glyph unicode="&#x2022;" horiz-adv-x="448" d="M388 314Q388 281 375 250T340 196T288 159T224 145Q189 145 159 158T107 195T73 248T60 314Q60 349 72 379T107 433T159 469T224 483Q259 483 289 470T341 433T375 379T388 314Z"  />
<glyph unicode="&#x2026;" horiz-adv-x="928" d="M868 84Q868 71 858 54T832 20T800 -7T770 -18Q756 -18 739 -8T707 18T681 50T670 81Q670 94 680 111T705 145T737 172T768 183Q781 183 798 173T831 147T857 115T868 84ZM564 84Q564 71 554 54T528 20T496 -7T466 -18Q452 -18 435 -8T402 18T376 51T365 81Q365 94 375 111T401 145T434 172T464 183Q477 183 494 173T527 147T553 114T564 84ZM259 84Q259 71 249 54T223 20T191 -7T161 -18Q147 -18 130 -8T97 18T71 51T60 81Q60 94 70 111T96 145T129 172T159 183Q172 183 189 173T222 147T248 115T259 84Z"  />
<glyph unicode="&#x2030;" horiz-adv-x="1303" d="M1243 178Q1243 138 1236 103T1212 43T1164 2T1088 -13Q1042 -13 1012 1T965 42T940 102T933 178Q933 218 940 253T964 314T1012 354T1088 369Q1134 369 1164 354T1211 314T1236 253T1243 178ZM1136 178Q1136 186 1136 198T1134 224T1131 249T1124 268Q1119 276 1108 278T1088 281Q1080 281 1069 279T1053 268Q1049 260 1047 249T1044 224T1042 199T1041 178Q1041 170 1041 158T1043 132T1047 107T1053 88Q1058 80 1069 78T1088 75Q1096 75 1107 77T1124 88Q1128 95 1130 107T1134 132T1135 157T1136 178ZM871 178Q871 138 864 103T840 43T792 2T716 -13Q670 -13 640 1T593 42T568 102T561 178Q561 218 568 253T592 314T640 354T716 369Q762 369 792 354T839 314T864 253T871 178ZM764 178Q764 186 764 198T762 224T758 248T751 268Q746 276 735 278T716 281Q708 281 697 279T680 268Q676 260 674 249T671 224T669 199T668 178Q668 170 668 158T670 132T674 107T680 88Q685 80 696 78T716 75Q724 75 735 77T751 88Q755 95 757 107T761 132T763 157T764 178ZM704 653Q704 644 699 634L334 -18Q327 -29 316 -34T292 -40Q285 -40 282 -38L236 -10Q229 -6 227 1T225 16Q225 25 230 35L596 687Q608 709 636 709Q643 709 646 707L693 679Q700 675 702 668T704 653ZM369 490Q369 450 362 415T338 355T290 314T214 299Q167 299 138 313T91 354T67 414T60 490Q60 530 66 565T90 625T137 666T214 681Q260 681 290 666T337 626T362 565T369 490ZM262 490Q262 498 262 510T260 536T257 561T250 580Q245 588 234 590T214 593Q206 593 195 591T179 580Q175 572 173 561T170 536T168 511T167 490Q167 482 167 470T169 444T173 419T179 400Q184 392 195 390T214 387Q222 387 233 389T250 400Q254 407 256 419T260 444T261 469T262 490Z"  />
<glyph unicode="&#x2039;" horiz-adv-x="331" d="M299 88Q299 77 290 70T267 60T241 55T221 54Q201 54 188 58T161 79Q155 87 138 109T104 157T74 204T60 233Q60 240 73 262T104 309T138 356T161 387Q174 404 187 408T221 412Q228 412 241 411T267 407T289 396T299 378Q299 367 292 357L212 233L292 109Q299 98 299 88Z"  />
<glyph unicode="&#x203A;" horiz-adv-x="332" d="M272 233Q272 225 259 204T228 158T194 111T170 79Q157 62 144 58T111 54Q104 54 91 55T64 59T42 70T32 88Q32 98 39 109L119 233L39 357Q32 367 32 378Q32 389 41 396T64 406T90 411T111 412Q131 412 144 408T170 387Q176 378 193 356T227 309T258 262T272 233Z"  />
<glyph unicode="&#x20AC;" horiz-adv-x="627" d="M570 38Q570 24 565 16T552 3T533 -4T510 -7Q482 -9 455 -10T399 -12Q339 -12 292 -2T209 32T152 97T119 201Q107 201 92 201T63 203T41 216T32 243V261Q32 279 39 288T58 302T84 306T111 307Q110 312 110 318T110 329Q110 337 110 344T111 360Q98 360 84 360T59 363T40 376T32 403V420Q32 439 40 449T62 462T91 466T120 466Q130 530 152 571T208 637T290 670T399 680Q427 680 454 679T510 675Q534 673 552 666T570 630V598Q570 568 562 556T522 544Q496 544 471 546T419 549Q392 549 368 548T324 538T291 514T271 466H401Q418 466 434 458T450 429V400Q450 376 435 368T399 360H264V328V307H381Q400 307 415 298T430 268V242Q430 214 412 208T371 201H272Q278 170 291 153T324 129T368 120T419 119Q445 119 470 121T522 124Q544 124 554 118T568 99T571 72T570 38Z"  />
<glyph unicode="&#x2122;" horiz-adv-x="1002" d="M951 309Q951 292 943 284T924 272T898 268T872 268Q852 268 838 279T822 311L813 426Q804 405 795 384T776 342Q759 308 721 308H700Q680 308 668 316T646 342Q635 362 627 383T608 426L598 311Q596 293 589 285T572 272T548 268T522 268Q502 268 486 277T469 309V316L502 628Q504 646 513 654T535 666T562 669T590 668Q608 668 621 662T643 639Q661 601 677 563T711 486Q728 524 744 562T779 639Q785 652 795 658T816 667T841 669T867 668Q888 668 902 660T919 628L951 316V309ZM410 611Q410 586 398 576T361 564Q344 563 326 564T290 565V313Q290 295 283 286T265 273T241 269T214 268Q191 268 176 278T161 313V565Q143 565 126 565T90 564Q57 564 49 581T40 625Q40 648 55 658T90 668H361Q381 668 395 658T410 625V611Z"  />

</font>
</defs>
</svg>
